<mxfile host="app.diagrams.net" modified="2024-03-12T03:53:37.031Z" agent="Mozilla/5.0 (Windows NT 10.0; Win64; x64) AppleWebKit/537.36 (KHTML, like Gecko) Chrome/122.0.0.0 Safari/537.36" etag="ktapmWGb00s5BWzGEkto" version="24.0.4" type="device" pages="2">
  <diagram id="R2lEEEUBdFMjLlhIrx00" name="Page-1">
    <mxGraphModel dx="3000" dy="1626" grid="1" gridSize="10" guides="1" tooltips="1" connect="1" arrows="1" fold="1" page="1" pageScale="1" pageWidth="850" pageHeight="1100" math="0" shadow="0" extFonts="Permanent Marker^https://fonts.googleapis.com/css?family=Permanent+Marker">
      <root>
        <mxCell id="0" />
        <mxCell id="1" parent="0" />
        <mxCell id="OpciTe9--MGoAwBzpZvH-1" value="Admin" style="whiteSpace=wrap;html=1;align=center;labelBackgroundColor=none;fillColor=#09555B;strokeColor=#BAC8D3;fontColor=#EEEEEE;" parent="1" vertex="1">
          <mxGeometry x="360" y="90" width="120" height="40" as="geometry" />
        </mxCell>
        <mxCell id="OpciTe9--MGoAwBzpZvH-2" value="Id" style="ellipse;whiteSpace=wrap;html=1;align=center;labelBackgroundColor=none;fillColor=#09555B;strokeColor=#BAC8D3;fontColor=#EEEEEE;" parent="1" vertex="1">
          <mxGeometry x="240" y="50" width="100" height="40" as="geometry" />
        </mxCell>
        <mxCell id="OpciTe9--MGoAwBzpZvH-3" value="Password" style="ellipse;whiteSpace=wrap;html=1;align=center;labelBackgroundColor=none;fillColor=#09555B;strokeColor=#BAC8D3;fontColor=#EEEEEE;" parent="1" vertex="1">
          <mxGeometry x="500" y="50" width="100" height="40" as="geometry" />
        </mxCell>
        <mxCell id="OpciTe9--MGoAwBzpZvH-4" value="Username" style="ellipse;whiteSpace=wrap;html=1;align=center;labelBackgroundColor=none;fillColor=#09555B;strokeColor=#BAC8D3;fontColor=#EEEEEE;" parent="1" vertex="1">
          <mxGeometry x="310" y="10" width="100" height="40" as="geometry" />
        </mxCell>
        <mxCell id="OpciTe9--MGoAwBzpZvH-5" value="Email" style="ellipse;whiteSpace=wrap;html=1;align=center;labelBackgroundColor=none;fillColor=#09555B;strokeColor=#BAC8D3;fontColor=#EEEEEE;" parent="1" vertex="1">
          <mxGeometry x="430" y="10" width="100" height="40" as="geometry" />
        </mxCell>
        <mxCell id="OpciTe9--MGoAwBzpZvH-6" value="" style="endArrow=none;html=1;rounded=0;exitX=0.5;exitY=1;exitDx=0;exitDy=0;entryX=0;entryY=0.5;entryDx=0;entryDy=0;labelBackgroundColor=none;strokeColor=#0B4D6A;fontColor=default;" parent="1" source="OpciTe9--MGoAwBzpZvH-2" target="OpciTe9--MGoAwBzpZvH-1" edge="1">
          <mxGeometry relative="1" as="geometry">
            <mxPoint x="460" y="200" as="sourcePoint" />
            <mxPoint x="620" y="200" as="targetPoint" />
          </mxGeometry>
        </mxCell>
        <mxCell id="OpciTe9--MGoAwBzpZvH-8" value="" style="endArrow=none;html=1;rounded=0;exitX=1;exitY=0.75;exitDx=0;exitDy=0;entryX=0.5;entryY=1;entryDx=0;entryDy=0;labelBackgroundColor=none;strokeColor=#0B4D6A;fontColor=default;" parent="1" source="OpciTe9--MGoAwBzpZvH-1" target="OpciTe9--MGoAwBzpZvH-3" edge="1">
          <mxGeometry relative="1" as="geometry">
            <mxPoint x="460" y="200" as="sourcePoint" />
            <mxPoint x="620" y="200" as="targetPoint" />
          </mxGeometry>
        </mxCell>
        <mxCell id="OpciTe9--MGoAwBzpZvH-9" value="" style="endArrow=none;html=1;rounded=0;exitX=0.5;exitY=1;exitDx=0;exitDy=0;entryX=0.25;entryY=0;entryDx=0;entryDy=0;labelBackgroundColor=none;strokeColor=#0B4D6A;fontColor=default;" parent="1" source="OpciTe9--MGoAwBzpZvH-4" target="OpciTe9--MGoAwBzpZvH-1" edge="1">
          <mxGeometry relative="1" as="geometry">
            <mxPoint x="440" y="150" as="sourcePoint" />
            <mxPoint x="600" y="150" as="targetPoint" />
          </mxGeometry>
        </mxCell>
        <mxCell id="OpciTe9--MGoAwBzpZvH-10" value="" style="endArrow=none;html=1;rounded=0;exitX=0.5;exitY=1;exitDx=0;exitDy=0;entryX=0.75;entryY=0;entryDx=0;entryDy=0;labelBackgroundColor=none;strokeColor=#0B4D6A;fontColor=default;" parent="1" source="OpciTe9--MGoAwBzpZvH-5" target="OpciTe9--MGoAwBzpZvH-1" edge="1">
          <mxGeometry relative="1" as="geometry">
            <mxPoint x="370" y="60" as="sourcePoint" />
            <mxPoint x="400" y="100" as="targetPoint" />
          </mxGeometry>
        </mxCell>
        <mxCell id="OpciTe9--MGoAwBzpZvH-12" value="Manage" style="shape=rhombus;perimeter=rhombusPerimeter;whiteSpace=wrap;html=1;align=center;labelBackgroundColor=none;fillColor=#09555B;strokeColor=#BAC8D3;fontColor=#EEEEEE;" parent="1" vertex="1">
          <mxGeometry x="360" y="170" width="120" height="60" as="geometry" />
        </mxCell>
        <mxCell id="OpciTe9--MGoAwBzpZvH-14" value="" style="endArrow=none;html=1;rounded=0;exitX=0.5;exitY=1;exitDx=0;exitDy=0;entryX=0.5;entryY=0;entryDx=0;entryDy=0;entryPerimeter=0;labelBackgroundColor=none;strokeColor=#0B4D6A;fontColor=default;" parent="1" source="OpciTe9--MGoAwBzpZvH-1" target="OpciTe9--MGoAwBzpZvH-12" edge="1">
          <mxGeometry relative="1" as="geometry">
            <mxPoint x="410" y="280" as="sourcePoint" />
            <mxPoint x="500" y="260" as="targetPoint" />
          </mxGeometry>
        </mxCell>
        <mxCell id="OpciTe9--MGoAwBzpZvH-15" value="Classes" style="whiteSpace=wrap;html=1;align=center;labelBackgroundColor=none;fillColor=#09555B;strokeColor=#BAC8D3;fontColor=#EEEEEE;" parent="1" vertex="1">
          <mxGeometry x="550" y="180" width="100" height="40" as="geometry" />
        </mxCell>
        <mxCell id="OpciTe9--MGoAwBzpZvH-16" value="ClassId" style="ellipse;whiteSpace=wrap;html=1;align=center;labelBackgroundColor=none;fillColor=#09555B;strokeColor=#BAC8D3;fontColor=#EEEEEE;" parent="1" vertex="1">
          <mxGeometry x="580" y="110" width="100" height="40" as="geometry" />
        </mxCell>
        <mxCell id="OpciTe9--MGoAwBzpZvH-17" value="Class" style="ellipse;whiteSpace=wrap;html=1;align=center;labelBackgroundColor=none;fillColor=#09555B;strokeColor=#BAC8D3;fontColor=#EEEEEE;" parent="1" vertex="1">
          <mxGeometry x="670" y="140" width="100" height="40" as="geometry" />
        </mxCell>
        <mxCell id="OpciTe9--MGoAwBzpZvH-18" value="DeptId" style="ellipse;whiteSpace=wrap;html=1;align=center;labelBackgroundColor=none;fillColor=#09555B;strokeColor=#BAC8D3;fontColor=#EEEEEE;" parent="1" vertex="1">
          <mxGeometry x="730" y="180" width="100" height="40" as="geometry" />
        </mxCell>
        <mxCell id="OpciTe9--MGoAwBzpZvH-19" value="FacultyId" style="ellipse;whiteSpace=wrap;html=1;align=center;labelBackgroundColor=none;fillColor=#09555B;strokeColor=#BAC8D3;fontColor=#EEEEEE;" parent="1" vertex="1">
          <mxGeometry x="670" y="220" width="100" height="40" as="geometry" />
        </mxCell>
        <mxCell id="OpciTe9--MGoAwBzpZvH-20" value="Fees" style="ellipse;whiteSpace=wrap;html=1;align=center;labelBackgroundColor=none;fillColor=#09555B;strokeColor=#BAC8D3;fontColor=#EEEEEE;" parent="1" vertex="1">
          <mxGeometry x="580" y="260" width="100" height="40" as="geometry" />
        </mxCell>
        <mxCell id="OpciTe9--MGoAwBzpZvH-21" value="" style="endArrow=none;html=1;rounded=0;exitX=0.5;exitY=0;exitDx=0;exitDy=0;entryX=0.5;entryY=1;entryDx=0;entryDy=0;labelBackgroundColor=none;strokeColor=#0B4D6A;fontColor=default;" parent="1" source="OpciTe9--MGoAwBzpZvH-15" target="OpciTe9--MGoAwBzpZvH-16" edge="1">
          <mxGeometry relative="1" as="geometry">
            <mxPoint x="470" y="220" as="sourcePoint" />
            <mxPoint x="630" y="220" as="targetPoint" />
          </mxGeometry>
        </mxCell>
        <mxCell id="OpciTe9--MGoAwBzpZvH-23" value="" style="endArrow=none;html=1;rounded=0;entryX=0;entryY=1;entryDx=0;entryDy=0;exitX=1;exitY=0;exitDx=0;exitDy=0;labelBackgroundColor=none;strokeColor=#0B4D6A;fontColor=default;" parent="1" source="OpciTe9--MGoAwBzpZvH-15" target="OpciTe9--MGoAwBzpZvH-17" edge="1">
          <mxGeometry relative="1" as="geometry">
            <mxPoint x="470" y="220" as="sourcePoint" />
            <mxPoint x="630" y="220" as="targetPoint" />
          </mxGeometry>
        </mxCell>
        <mxCell id="OpciTe9--MGoAwBzpZvH-25" value="" style="endArrow=none;html=1;rounded=0;entryX=0;entryY=0.5;entryDx=0;entryDy=0;exitX=1;exitY=0.5;exitDx=0;exitDy=0;labelBackgroundColor=none;strokeColor=#0B4D6A;fontColor=default;" parent="1" source="OpciTe9--MGoAwBzpZvH-15" target="OpciTe9--MGoAwBzpZvH-18" edge="1">
          <mxGeometry relative="1" as="geometry">
            <mxPoint x="470" y="220" as="sourcePoint" />
            <mxPoint x="630" y="220" as="targetPoint" />
          </mxGeometry>
        </mxCell>
        <mxCell id="OpciTe9--MGoAwBzpZvH-26" value="" style="endArrow=none;html=1;rounded=0;entryX=0;entryY=0;entryDx=0;entryDy=0;exitX=1;exitY=1;exitDx=0;exitDy=0;labelBackgroundColor=none;strokeColor=#0B4D6A;fontColor=default;" parent="1" source="OpciTe9--MGoAwBzpZvH-15" target="OpciTe9--MGoAwBzpZvH-19" edge="1">
          <mxGeometry relative="1" as="geometry">
            <mxPoint x="660" y="190" as="sourcePoint" />
            <mxPoint x="695" y="184" as="targetPoint" />
          </mxGeometry>
        </mxCell>
        <mxCell id="OpciTe9--MGoAwBzpZvH-27" value="" style="endArrow=none;html=1;rounded=0;entryX=0.5;entryY=0;entryDx=0;entryDy=0;exitX=0.5;exitY=1;exitDx=0;exitDy=0;labelBackgroundColor=none;strokeColor=#0B4D6A;fontColor=default;" parent="1" source="OpciTe9--MGoAwBzpZvH-15" target="OpciTe9--MGoAwBzpZvH-20" edge="1">
          <mxGeometry relative="1" as="geometry">
            <mxPoint x="470" y="220" as="sourcePoint" />
            <mxPoint x="630" y="220" as="targetPoint" />
          </mxGeometry>
        </mxCell>
        <mxCell id="OpciTe9--MGoAwBzpZvH-28" value="" style="edgeStyle=entityRelationEdgeStyle;fontSize=12;html=1;endArrow=ERoneToMany;rounded=0;exitX=1;exitY=0.5;exitDx=0;exitDy=0;entryX=0;entryY=0.5;entryDx=0;entryDy=0;labelBackgroundColor=none;strokeColor=#0B4D6A;fontColor=default;" parent="1" source="OpciTe9--MGoAwBzpZvH-12" target="OpciTe9--MGoAwBzpZvH-15" edge="1">
          <mxGeometry width="100" height="100" relative="1" as="geometry">
            <mxPoint x="470" y="370" as="sourcePoint" />
            <mxPoint x="570" y="270" as="targetPoint" />
            <Array as="points">
              <mxPoint x="500" y="230" />
            </Array>
          </mxGeometry>
        </mxCell>
        <mxCell id="OpciTe9--MGoAwBzpZvH-40" value="Departments" style="whiteSpace=wrap;html=1;align=center;labelBackgroundColor=none;fillColor=#09555B;strokeColor=#BAC8D3;fontColor=#EEEEEE;" parent="1" vertex="1">
          <mxGeometry x="180" y="180" width="100" height="40" as="geometry" />
        </mxCell>
        <mxCell id="OpciTe9--MGoAwBzpZvH-43" value="" style="edgeStyle=entityRelationEdgeStyle;fontSize=12;html=1;endArrow=ERoneToMany;rounded=0;exitX=0;exitY=0.5;exitDx=0;exitDy=0;labelBackgroundColor=none;strokeColor=#0B4D6A;fontColor=default;" parent="1" source="OpciTe9--MGoAwBzpZvH-12" target="OpciTe9--MGoAwBzpZvH-40" edge="1">
          <mxGeometry width="100" height="100" relative="1" as="geometry">
            <mxPoint x="410" y="350" as="sourcePoint" />
            <mxPoint x="280" y="410" as="targetPoint" />
            <Array as="points">
              <mxPoint x="280" y="390" />
              <mxPoint x="340" y="250" />
              <mxPoint x="360" y="250" />
              <mxPoint x="340" y="340" />
              <mxPoint x="280" y="390" />
              <mxPoint x="330" y="390" />
            </Array>
          </mxGeometry>
        </mxCell>
        <mxCell id="OpciTe9--MGoAwBzpZvH-44" value="DeptId" style="ellipse;whiteSpace=wrap;html=1;align=center;labelBackgroundColor=none;fillColor=#09555B;strokeColor=#BAC8D3;fontColor=#EEEEEE;" parent="1" vertex="1">
          <mxGeometry x="150" y="120" width="100" height="40" as="geometry" />
        </mxCell>
        <mxCell id="OpciTe9--MGoAwBzpZvH-45" value="DeptName" style="ellipse;whiteSpace=wrap;html=1;align=center;labelBackgroundColor=none;fillColor=#09555B;strokeColor=#BAC8D3;fontColor=#EEEEEE;" parent="1" vertex="1">
          <mxGeometry x="70" y="160" width="100" height="40" as="geometry" />
        </mxCell>
        <mxCell id="OpciTe9--MGoAwBzpZvH-46" value="Medium" style="ellipse;whiteSpace=wrap;html=1;align=center;labelBackgroundColor=none;fillColor=#09555B;strokeColor=#BAC8D3;fontColor=#EEEEEE;" parent="1" vertex="1">
          <mxGeometry x="70" y="210" width="100" height="40" as="geometry" />
        </mxCell>
        <mxCell id="OpciTe9--MGoAwBzpZvH-47" value="HeadOfDept" style="ellipse;whiteSpace=wrap;html=1;align=center;labelBackgroundColor=none;fillColor=#09555B;strokeColor=#BAC8D3;fontColor=#EEEEEE;" parent="1" vertex="1">
          <mxGeometry x="160" y="250" width="100" height="40" as="geometry" />
        </mxCell>
        <mxCell id="OpciTe9--MGoAwBzpZvH-48" value="" style="endArrow=none;html=1;rounded=0;strokeColor=#0B4D6A;exitX=0.5;exitY=1;exitDx=0;exitDy=0;entryX=0.5;entryY=0;entryDx=0;entryDy=0;labelBackgroundColor=none;fontColor=default;" parent="1" source="OpciTe9--MGoAwBzpZvH-44" target="OpciTe9--MGoAwBzpZvH-40" edge="1">
          <mxGeometry relative="1" as="geometry">
            <mxPoint x="300" y="120" as="sourcePoint" />
            <mxPoint x="460" y="120" as="targetPoint" />
          </mxGeometry>
        </mxCell>
        <mxCell id="OpciTe9--MGoAwBzpZvH-49" value="" style="endArrow=none;html=1;rounded=0;strokeColor=#0B4D6A;exitX=0.5;exitY=0;exitDx=0;exitDy=0;entryX=0.5;entryY=1;entryDx=0;entryDy=0;labelBackgroundColor=none;fontColor=default;" parent="1" source="OpciTe9--MGoAwBzpZvH-47" target="OpciTe9--MGoAwBzpZvH-40" edge="1">
          <mxGeometry relative="1" as="geometry">
            <mxPoint x="280" y="160" as="sourcePoint" />
            <mxPoint x="440" y="160" as="targetPoint" />
          </mxGeometry>
        </mxCell>
        <mxCell id="OpciTe9--MGoAwBzpZvH-50" value="" style="endArrow=none;html=1;rounded=0;strokeColor=#0B4D6A;exitX=1;exitY=1;exitDx=0;exitDy=0;labelBackgroundColor=none;fontColor=default;" parent="1" source="OpciTe9--MGoAwBzpZvH-45" target="OpciTe9--MGoAwBzpZvH-40" edge="1">
          <mxGeometry relative="1" as="geometry">
            <mxPoint x="280" y="160" as="sourcePoint" />
            <mxPoint x="440" y="160" as="targetPoint" />
          </mxGeometry>
        </mxCell>
        <mxCell id="OpciTe9--MGoAwBzpZvH-51" value="" style="endArrow=none;html=1;rounded=0;strokeColor=#0B4D6A;exitX=1;exitY=0;exitDx=0;exitDy=0;entryX=0;entryY=0.75;entryDx=0;entryDy=0;labelBackgroundColor=none;fontColor=default;" parent="1" source="OpciTe9--MGoAwBzpZvH-46" target="OpciTe9--MGoAwBzpZvH-40" edge="1">
          <mxGeometry relative="1" as="geometry">
            <mxPoint x="280" y="160" as="sourcePoint" />
            <mxPoint x="440" y="160" as="targetPoint" />
          </mxGeometry>
        </mxCell>
        <mxCell id="OpciTe9--MGoAwBzpZvH-52" value="Faculty" style="whiteSpace=wrap;html=1;align=center;labelBackgroundColor=none;fillColor=#09555B;strokeColor=#BAC8D3;fontColor=#EEEEEE;" parent="1" vertex="1">
          <mxGeometry x="220" y="460" width="100" height="40" as="geometry" />
        </mxCell>
        <mxCell id="OpciTe9--MGoAwBzpZvH-53" value="" style="edgeStyle=entityRelationEdgeStyle;fontSize=12;html=1;endArrow=ERoneToMany;rounded=0;strokeColor=#0B4D6A;entryX=1;entryY=0.5;entryDx=0;entryDy=0;exitX=0;exitY=1;exitDx=0;exitDy=0;labelBackgroundColor=none;fontColor=default;" parent="1" source="OpciTe9--MGoAwBzpZvH-12" target="OpciTe9--MGoAwBzpZvH-52" edge="1">
          <mxGeometry width="100" height="100" relative="1" as="geometry">
            <mxPoint x="210" y="350" as="sourcePoint" />
            <mxPoint x="460" y="400" as="targetPoint" />
            <Array as="points">
              <mxPoint x="380" y="370" />
              <mxPoint x="390" y="380" />
            </Array>
          </mxGeometry>
        </mxCell>
        <mxCell id="OpciTe9--MGoAwBzpZvH-54" value="Fname" style="ellipse;whiteSpace=wrap;html=1;align=center;labelBackgroundColor=none;fillColor=#09555B;strokeColor=#BAC8D3;fontColor=#EEEEEE;" parent="1" vertex="1">
          <mxGeometry x="130" y="330" width="100" height="40" as="geometry" />
        </mxCell>
        <mxCell id="OpciTe9--MGoAwBzpZvH-55" value="Lname" style="ellipse;whiteSpace=wrap;html=1;align=center;labelBackgroundColor=none;fillColor=#09555B;strokeColor=#BAC8D3;fontColor=#EEEEEE;" parent="1" vertex="1">
          <mxGeometry x="20" y="330" width="100" height="40" as="geometry" />
        </mxCell>
        <mxCell id="OpciTe9--MGoAwBzpZvH-56" value="Gender" style="ellipse;whiteSpace=wrap;html=1;align=center;labelBackgroundColor=none;fillColor=#09555B;strokeColor=#BAC8D3;fontColor=#EEEEEE;" parent="1" vertex="1">
          <mxGeometry x="20" y="390" width="100" height="40" as="geometry" />
        </mxCell>
        <mxCell id="OpciTe9--MGoAwBzpZvH-57" value="Qualification" style="ellipse;whiteSpace=wrap;html=1;align=center;labelBackgroundColor=none;fillColor=#09555B;strokeColor=#BAC8D3;fontColor=#EEEEEE;" parent="1" vertex="1">
          <mxGeometry x="20" y="460" width="100" height="40" as="geometry" />
        </mxCell>
        <mxCell id="OpciTe9--MGoAwBzpZvH-58" value="FacultyId" style="ellipse;whiteSpace=wrap;html=1;align=center;labelBackgroundColor=none;fillColor=#09555B;strokeColor=#BAC8D3;fontColor=#EEEEEE;" parent="1" vertex="1">
          <mxGeometry x="240" y="330" width="100" height="40" as="geometry" />
        </mxCell>
        <mxCell id="OpciTe9--MGoAwBzpZvH-59" value="ClassId" style="ellipse;whiteSpace=wrap;html=1;align=center;labelBackgroundColor=none;fillColor=#09555B;strokeColor=#BAC8D3;fontColor=#EEEEEE;" parent="1" vertex="1">
          <mxGeometry x="20" y="530" width="100" height="40" as="geometry" />
        </mxCell>
        <mxCell id="OpciTe9--MGoAwBzpZvH-61" value="" style="endArrow=none;html=1;rounded=0;strokeColor=#0B4D6A;exitX=0.5;exitY=0;exitDx=0;exitDy=0;entryX=0;entryY=0.75;entryDx=0;entryDy=0;labelBackgroundColor=none;fontColor=default;" parent="1" source="OpciTe9--MGoAwBzpZvH-59" target="OpciTe9--MGoAwBzpZvH-52" edge="1">
          <mxGeometry relative="1" as="geometry">
            <mxPoint x="430" y="550" as="sourcePoint" />
            <mxPoint x="590" y="550" as="targetPoint" />
          </mxGeometry>
        </mxCell>
        <mxCell id="OpciTe9--MGoAwBzpZvH-62" value="" style="endArrow=none;html=1;rounded=0;strokeColor=#0B4D6A;exitX=1;exitY=0.5;exitDx=0;exitDy=0;labelBackgroundColor=none;fontColor=default;" parent="1" source="OpciTe9--MGoAwBzpZvH-57" target="OpciTe9--MGoAwBzpZvH-52" edge="1">
          <mxGeometry relative="1" as="geometry">
            <mxPoint x="280" y="520" as="sourcePoint" />
            <mxPoint x="440" y="520" as="targetPoint" />
          </mxGeometry>
        </mxCell>
        <mxCell id="OpciTe9--MGoAwBzpZvH-63" value="" style="endArrow=none;html=1;rounded=0;strokeColor=#0B4D6A;exitX=0.5;exitY=1;exitDx=0;exitDy=0;entryX=0;entryY=0.25;entryDx=0;entryDy=0;labelBackgroundColor=none;fontColor=default;" parent="1" source="OpciTe9--MGoAwBzpZvH-56" target="OpciTe9--MGoAwBzpZvH-52" edge="1">
          <mxGeometry relative="1" as="geometry">
            <mxPoint x="130" y="540" as="sourcePoint" />
            <mxPoint x="230" y="500" as="targetPoint" />
          </mxGeometry>
        </mxCell>
        <mxCell id="OpciTe9--MGoAwBzpZvH-64" value="" style="endArrow=none;html=1;rounded=0;strokeColor=#0B4D6A;exitX=0.5;exitY=1;exitDx=0;exitDy=0;entryX=0.25;entryY=0;entryDx=0;entryDy=0;labelBackgroundColor=none;fontColor=default;" parent="1" source="OpciTe9--MGoAwBzpZvH-55" target="OpciTe9--MGoAwBzpZvH-52" edge="1">
          <mxGeometry relative="1" as="geometry">
            <mxPoint x="130" y="450" as="sourcePoint" />
            <mxPoint x="230" y="480" as="targetPoint" />
          </mxGeometry>
        </mxCell>
        <mxCell id="OpciTe9--MGoAwBzpZvH-65" value="Experience" style="ellipse;whiteSpace=wrap;html=1;align=center;labelBackgroundColor=none;fillColor=#09555B;strokeColor=#BAC8D3;fontColor=#EEEEEE;" parent="1" vertex="1">
          <mxGeometry x="20" y="590" width="100" height="40" as="geometry" />
        </mxCell>
        <mxCell id="OpciTe9--MGoAwBzpZvH-66" value="" style="endArrow=none;html=1;rounded=0;strokeColor=#0B4D6A;exitX=0.5;exitY=0;exitDx=0;exitDy=0;entryX=0.25;entryY=1;entryDx=0;entryDy=0;labelBackgroundColor=none;fontColor=default;" parent="1" source="OpciTe9--MGoAwBzpZvH-65" target="OpciTe9--MGoAwBzpZvH-52" edge="1">
          <mxGeometry relative="1" as="geometry">
            <mxPoint x="130" y="640" as="sourcePoint" />
            <mxPoint x="220" y="650" as="targetPoint" />
          </mxGeometry>
        </mxCell>
        <mxCell id="OpciTe9--MGoAwBzpZvH-67" value="Profile" style="ellipse;whiteSpace=wrap;html=1;align=center;labelBackgroundColor=none;fillColor=#09555B;strokeColor=#BAC8D3;fontColor=#EEEEEE;" parent="1" vertex="1">
          <mxGeometry x="130" y="590" width="100" height="40" as="geometry" />
        </mxCell>
        <mxCell id="OpciTe9--MGoAwBzpZvH-68" value="Status" style="ellipse;whiteSpace=wrap;html=1;align=center;labelBackgroundColor=none;fillColor=#09555B;strokeColor=#BAC8D3;fontColor=#EEEEEE;" parent="1" vertex="1">
          <mxGeometry x="240" y="590" width="100" height="40" as="geometry" />
        </mxCell>
        <mxCell id="OpciTe9--MGoAwBzpZvH-69" value="" style="endArrow=none;html=1;rounded=0;strokeColor=#0B4D6A;exitX=0.5;exitY=1;exitDx=0;exitDy=0;entryX=0.5;entryY=0;entryDx=0;entryDy=0;labelBackgroundColor=none;fontColor=default;" parent="1" source="OpciTe9--MGoAwBzpZvH-54" target="OpciTe9--MGoAwBzpZvH-52" edge="1">
          <mxGeometry relative="1" as="geometry">
            <mxPoint x="130" y="420" as="sourcePoint" />
            <mxPoint x="230" y="470" as="targetPoint" />
          </mxGeometry>
        </mxCell>
        <mxCell id="OpciTe9--MGoAwBzpZvH-70" value="" style="endArrow=none;html=1;rounded=0;strokeColor=#0B4D6A;exitX=0.5;exitY=0;exitDx=0;exitDy=0;entryX=0.5;entryY=1;entryDx=0;entryDy=0;labelBackgroundColor=none;fontColor=default;" parent="1" source="OpciTe9--MGoAwBzpZvH-67" target="OpciTe9--MGoAwBzpZvH-52" edge="1">
          <mxGeometry relative="1" as="geometry">
            <mxPoint x="220" y="390" as="sourcePoint" />
            <mxPoint x="240" y="500" as="targetPoint" />
          </mxGeometry>
        </mxCell>
        <mxCell id="OpciTe9--MGoAwBzpZvH-71" value="" style="endArrow=none;html=1;rounded=0;strokeColor=#0B4D6A;exitX=0.5;exitY=1;exitDx=0;exitDy=0;entryX=0.75;entryY=0;entryDx=0;entryDy=0;labelBackgroundColor=none;fontColor=default;" parent="1" source="OpciTe9--MGoAwBzpZvH-58" target="OpciTe9--MGoAwBzpZvH-52" edge="1">
          <mxGeometry relative="1" as="geometry">
            <mxPoint x="270" y="520" as="sourcePoint" />
            <mxPoint x="430" y="520" as="targetPoint" />
          </mxGeometry>
        </mxCell>
        <mxCell id="OpciTe9--MGoAwBzpZvH-72" value="" style="endArrow=none;html=1;rounded=0;strokeColor=#0B4D6A;exitX=0.5;exitY=0;exitDx=0;exitDy=0;entryX=0.75;entryY=1;entryDx=0;entryDy=0;labelBackgroundColor=none;fontColor=default;" parent="1" source="OpciTe9--MGoAwBzpZvH-68" target="OpciTe9--MGoAwBzpZvH-52" edge="1">
          <mxGeometry relative="1" as="geometry">
            <mxPoint x="300" y="430" as="sourcePoint" />
            <mxPoint x="287" y="470" as="targetPoint" />
          </mxGeometry>
        </mxCell>
        <mxCell id="OpciTe9--MGoAwBzpZvH-73" value="Students" style="whiteSpace=wrap;html=1;align=center;strokeColor=#BAC8D3;fontColor=#EEEEEE;fillColor=#09555B;labelBackgroundColor=none;" parent="1" vertex="1">
          <mxGeometry x="510" y="560" width="100" height="40" as="geometry" />
        </mxCell>
        <mxCell id="OpciTe9--MGoAwBzpZvH-74" value="" style="edgeStyle=entityRelationEdgeStyle;fontSize=12;html=1;endArrow=ERoneToMany;rounded=0;strokeColor=#0B4D6A;exitX=1;exitY=1;exitDx=0;exitDy=0;entryX=0;entryY=0.25;entryDx=0;entryDy=0;labelBackgroundColor=none;fontColor=default;" parent="1" source="OpciTe9--MGoAwBzpZvH-12" target="OpciTe9--MGoAwBzpZvH-73" edge="1">
          <mxGeometry width="100" height="100" relative="1" as="geometry">
            <mxPoint x="390" y="450" as="sourcePoint" />
            <mxPoint x="490" y="350" as="targetPoint" />
          </mxGeometry>
        </mxCell>
        <mxCell id="OpciTe9--MGoAwBzpZvH-75" value="Sid" style="ellipse;whiteSpace=wrap;html=1;align=center;labelBackgroundColor=none;fillColor=#09555B;strokeColor=#BAC8D3;fontColor=#EEEEEE;" parent="1" vertex="1">
          <mxGeometry x="560" y="370" width="100" height="40" as="geometry" />
        </mxCell>
        <mxCell id="OpciTe9--MGoAwBzpZvH-76" value="Full Name" style="ellipse;whiteSpace=wrap;html=1;align=center;labelBackgroundColor=none;fillColor=#09555B;strokeColor=#BAC8D3;fontColor=#EEEEEE;" parent="1" vertex="1">
          <mxGeometry x="620" y="330" width="100" height="40" as="geometry" />
        </mxCell>
        <mxCell id="OpciTe9--MGoAwBzpZvH-77" value="Gender" style="ellipse;whiteSpace=wrap;html=1;align=center;labelBackgroundColor=none;fillColor=#09555B;strokeColor=#BAC8D3;fontColor=#EEEEEE;" parent="1" vertex="1">
          <mxGeometry x="730" y="370" width="100" height="40" as="geometry" />
        </mxCell>
        <mxCell id="OpciTe9--MGoAwBzpZvH-78" value="Blood" style="ellipse;whiteSpace=wrap;html=1;align=center;labelBackgroundColor=none;fillColor=#09555B;strokeColor=#BAC8D3;fontColor=#EEEEEE;" parent="1" vertex="1">
          <mxGeometry x="730" y="420" width="100" height="40" as="geometry" />
        </mxCell>
        <mxCell id="OpciTe9--MGoAwBzpZvH-79" value="Address" style="ellipse;whiteSpace=wrap;html=1;align=center;labelBackgroundColor=none;fillColor=#09555B;strokeColor=#BAC8D3;fontColor=#EEEEEE;" parent="1" vertex="1">
          <mxGeometry x="730" y="470" width="100" height="40" as="geometry" />
        </mxCell>
        <mxCell id="OpciTe9--MGoAwBzpZvH-80" value="Phone" style="ellipse;whiteSpace=wrap;html=1;align=center;labelBackgroundColor=none;fillColor=#09555B;strokeColor=#BAC8D3;fontColor=#EEEEEE;" parent="1" vertex="1">
          <mxGeometry x="730" y="520" width="100" height="40" as="geometry" />
        </mxCell>
        <mxCell id="OpciTe9--MGoAwBzpZvH-81" value="Email Adress" style="ellipse;whiteSpace=wrap;html=1;align=center;labelBackgroundColor=none;fillColor=#09555B;strokeColor=#BAC8D3;fontColor=#EEEEEE;" parent="1" vertex="1">
          <mxGeometry x="730" y="570" width="100" height="40" as="geometry" />
        </mxCell>
        <mxCell id="OpciTe9--MGoAwBzpZvH-82" value="Tenth School" style="ellipse;whiteSpace=wrap;html=1;align=center;labelBackgroundColor=none;fillColor=#09555B;strokeColor=#BAC8D3;fontColor=#EEEEEE;" parent="1" vertex="1">
          <mxGeometry x="730" y="620" width="100" height="40" as="geometry" />
        </mxCell>
        <mxCell id="OpciTe9--MGoAwBzpZvH-83" value="Tenth Percent" style="ellipse;whiteSpace=wrap;html=1;align=center;labelBackgroundColor=none;fillColor=#09555B;strokeColor=#BAC8D3;fontColor=#EEEEEE;" parent="1" vertex="1">
          <mxGeometry x="730" y="670" width="100" height="40" as="geometry" />
        </mxCell>
        <mxCell id="OpciTe9--MGoAwBzpZvH-84" value="&lt;font style=&quot;font-size: 11px;&quot;&gt;Tenth Passing year&lt;/font&gt;" style="ellipse;whiteSpace=wrap;html=1;align=center;labelBackgroundColor=none;fillColor=#09555B;strokeColor=#BAC8D3;fontColor=#EEEEEE;" parent="1" vertex="1">
          <mxGeometry x="730" y="720" width="100" height="40" as="geometry" />
        </mxCell>
        <mxCell id="OpciTe9--MGoAwBzpZvH-85" value="TwelfthSchool&amp;nbsp;" style="ellipse;whiteSpace=wrap;html=1;align=center;labelBackgroundColor=none;fillColor=#09555B;strokeColor=#BAC8D3;fontColor=#EEEEEE;" parent="1" vertex="1">
          <mxGeometry x="730" y="770" width="100" height="40" as="geometry" />
        </mxCell>
        <mxCell id="OpciTe9--MGoAwBzpZvH-86" value="&lt;font style=&quot;font-size: 10px;&quot;&gt;TwelfthPercentage&amp;nbsp;&lt;/font&gt;" style="ellipse;whiteSpace=wrap;html=1;align=center;labelBackgroundColor=none;fillColor=#09555B;strokeColor=#BAC8D3;fontColor=#EEEEEE;" parent="1" vertex="1">
          <mxGeometry x="730" y="820" width="100" height="50" as="geometry" />
        </mxCell>
        <mxCell id="OpciTe9--MGoAwBzpZvH-87" value="DOB" style="ellipse;whiteSpace=wrap;html=1;align=center;labelBackgroundColor=none;fillColor=#09555B;strokeColor=#BAC8D3;fontColor=#EEEEEE;" parent="1" vertex="1">
          <mxGeometry x="730" y="320" width="100" height="40" as="geometry" />
        </mxCell>
        <mxCell id="OpciTe9--MGoAwBzpZvH-88" value="Password" style="ellipse;whiteSpace=wrap;html=1;align=center;labelBackgroundColor=none;fillColor=#09555B;strokeColor=#BAC8D3;fontColor=#EEEEEE;" parent="1" vertex="1">
          <mxGeometry x="450" y="750" width="100" height="40" as="geometry" />
        </mxCell>
        <mxCell id="OpciTe9--MGoAwBzpZvH-89" value="Profile" style="ellipse;whiteSpace=wrap;html=1;align=center;labelBackgroundColor=none;fillColor=#09555B;strokeColor=#BAC8D3;fontColor=#EEEEEE;" parent="1" vertex="1">
          <mxGeometry x="500" y="790" width="100" height="40" as="geometry" />
        </mxCell>
        <mxCell id="OpciTe9--MGoAwBzpZvH-90" value="ClassId" style="ellipse;whiteSpace=wrap;html=1;align=center;labelBackgroundColor=none;fillColor=#09555B;strokeColor=#BAC8D3;fontColor=#EEEEEE;" parent="1" vertex="1">
          <mxGeometry x="560" y="830" width="100" height="40" as="geometry" />
        </mxCell>
        <mxCell id="OpciTe9--MGoAwBzpZvH-91" value="DeptId" style="ellipse;whiteSpace=wrap;html=1;align=center;labelBackgroundColor=none;fillColor=#09555B;strokeColor=#BAC8D3;fontColor=#EEEEEE;" parent="1" vertex="1">
          <mxGeometry x="620" y="870" width="100" height="40" as="geometry" />
        </mxCell>
        <mxCell id="OpciTe9--MGoAwBzpZvH-92" value="&lt;font style=&quot;font-size: 10px;&quot;&gt;TwelfthPassingYear&amp;nbsp;&lt;/font&gt;" style="ellipse;whiteSpace=wrap;html=1;align=center;labelBackgroundColor=none;fillColor=#09555B;strokeColor=#BAC8D3;fontColor=#EEEEEE;" parent="1" vertex="1">
          <mxGeometry x="730" y="880" width="100" height="40" as="geometry" />
        </mxCell>
        <mxCell id="OpciTe9--MGoAwBzpZvH-94" value="" style="endArrow=none;html=1;rounded=0;strokeColor=#0B4D6A;exitX=0.5;exitY=0;exitDx=0;exitDy=0;entryX=0.5;entryY=1;entryDx=0;entryDy=0;labelBackgroundColor=none;fontColor=default;" parent="1" source="OpciTe9--MGoAwBzpZvH-88" target="OpciTe9--MGoAwBzpZvH-73" edge="1">
          <mxGeometry relative="1" as="geometry">
            <mxPoint x="450" y="620" as="sourcePoint" />
            <mxPoint x="620" y="600" as="targetPoint" />
          </mxGeometry>
        </mxCell>
        <mxCell id="OpciTe9--MGoAwBzpZvH-95" value="" style="endArrow=none;html=1;rounded=0;strokeColor=#0B4D6A;exitX=0.5;exitY=0;exitDx=0;exitDy=0;entryX=0.75;entryY=1;entryDx=0;entryDy=0;labelBackgroundColor=none;fontColor=default;" parent="1" source="OpciTe9--MGoAwBzpZvH-89" target="OpciTe9--MGoAwBzpZvH-73" edge="1">
          <mxGeometry relative="1" as="geometry">
            <mxPoint x="440" y="640" as="sourcePoint" />
            <mxPoint x="520" y="610" as="targetPoint" />
          </mxGeometry>
        </mxCell>
        <mxCell id="OpciTe9--MGoAwBzpZvH-96" value="" style="endArrow=none;html=1;rounded=0;strokeColor=#0B4D6A;exitX=0.5;exitY=0;exitDx=0;exitDy=0;entryX=0.75;entryY=1;entryDx=0;entryDy=0;labelBackgroundColor=none;fontColor=default;" parent="1" source="OpciTe9--MGoAwBzpZvH-90" target="OpciTe9--MGoAwBzpZvH-73" edge="1">
          <mxGeometry relative="1" as="geometry">
            <mxPoint x="480" y="690" as="sourcePoint" />
            <mxPoint x="545" y="610" as="targetPoint" />
          </mxGeometry>
        </mxCell>
        <mxCell id="OpciTe9--MGoAwBzpZvH-97" value="" style="endArrow=none;html=1;rounded=0;strokeColor=#0B4D6A;exitX=0.5;exitY=0;exitDx=0;exitDy=0;entryX=0.75;entryY=1;entryDx=0;entryDy=0;labelBackgroundColor=none;fontColor=default;" parent="1" source="OpciTe9--MGoAwBzpZvH-91" target="OpciTe9--MGoAwBzpZvH-73" edge="1">
          <mxGeometry relative="1" as="geometry">
            <mxPoint x="550" y="730" as="sourcePoint" />
            <mxPoint x="545" y="610" as="targetPoint" />
          </mxGeometry>
        </mxCell>
        <mxCell id="OpciTe9--MGoAwBzpZvH-98" value="" style="endArrow=none;html=1;rounded=0;strokeColor=#0B4D6A;exitX=0;exitY=0.5;exitDx=0;exitDy=0;entryX=1;entryY=1;entryDx=0;entryDy=0;labelBackgroundColor=none;fontColor=default;" parent="1" source="OpciTe9--MGoAwBzpZvH-92" target="OpciTe9--MGoAwBzpZvH-73" edge="1">
          <mxGeometry relative="1" as="geometry">
            <mxPoint x="620" y="770" as="sourcePoint" />
            <mxPoint x="570" y="610" as="targetPoint" />
          </mxGeometry>
        </mxCell>
        <mxCell id="OpciTe9--MGoAwBzpZvH-99" value="" style="endArrow=none;html=1;rounded=0;strokeColor=#0B4D6A;exitX=0;exitY=0;exitDx=0;exitDy=0;entryX=1;entryY=1;entryDx=0;entryDy=0;labelBackgroundColor=none;fontColor=default;" parent="1" source="OpciTe9--MGoAwBzpZvH-86" target="OpciTe9--MGoAwBzpZvH-73" edge="1">
          <mxGeometry relative="1" as="geometry">
            <mxPoint x="690" y="810" as="sourcePoint" />
            <mxPoint x="595" y="610" as="targetPoint" />
          </mxGeometry>
        </mxCell>
        <mxCell id="OpciTe9--MGoAwBzpZvH-100" value="" style="endArrow=none;html=1;rounded=0;strokeColor=#0B4D6A;exitX=0.5;exitY=1;exitDx=0;exitDy=0;entryX=0.75;entryY=0;entryDx=0;entryDy=0;labelBackgroundColor=none;fontColor=default;" parent="1" source="OpciTe9--MGoAwBzpZvH-75" target="OpciTe9--MGoAwBzpZvH-73" edge="1">
          <mxGeometry relative="1" as="geometry">
            <mxPoint x="440" y="640" as="sourcePoint" />
            <mxPoint x="520" y="600" as="targetPoint" />
          </mxGeometry>
        </mxCell>
        <mxCell id="OpciTe9--MGoAwBzpZvH-101" value="" style="endArrow=none;html=1;rounded=0;strokeColor=#0B4D6A;exitX=0.5;exitY=1;exitDx=0;exitDy=0;entryX=0.75;entryY=0;entryDx=0;entryDy=0;labelBackgroundColor=none;fontColor=default;" parent="1" source="OpciTe9--MGoAwBzpZvH-76" target="OpciTe9--MGoAwBzpZvH-73" edge="1">
          <mxGeometry relative="1" as="geometry">
            <mxPoint x="550" y="540" as="sourcePoint" />
            <mxPoint x="520" y="570" as="targetPoint" />
          </mxGeometry>
        </mxCell>
        <mxCell id="OpciTe9--MGoAwBzpZvH-103" value="" style="endArrow=none;html=1;rounded=0;strokeColor=#0B4D6A;exitX=1;exitY=0;exitDx=0;exitDy=0;entryX=0;entryY=0.5;entryDx=0;entryDy=0;labelBackgroundColor=none;fontColor=default;" parent="1" source="OpciTe9--MGoAwBzpZvH-73" target="OpciTe9--MGoAwBzpZvH-87" edge="1">
          <mxGeometry relative="1" as="geometry">
            <mxPoint x="500" y="490" as="sourcePoint" />
            <mxPoint x="680" y="410" as="targetPoint" />
          </mxGeometry>
        </mxCell>
        <mxCell id="OpciTe9--MGoAwBzpZvH-104" value="" style="endArrow=none;html=1;rounded=0;strokeColor=#0B4D6A;entryX=0;entryY=1;entryDx=0;entryDy=0;labelBackgroundColor=none;fontColor=default;" parent="1" target="OpciTe9--MGoAwBzpZvH-77" edge="1">
          <mxGeometry relative="1" as="geometry">
            <mxPoint x="610" y="560" as="sourcePoint" />
            <mxPoint x="660" y="610" as="targetPoint" />
          </mxGeometry>
        </mxCell>
        <mxCell id="OpciTe9--MGoAwBzpZvH-105" value="" style="endArrow=none;html=1;rounded=0;strokeColor=#0B4D6A;entryX=0;entryY=1;entryDx=0;entryDy=0;exitX=1;exitY=0;exitDx=0;exitDy=0;labelBackgroundColor=none;fontColor=default;" parent="1" source="OpciTe9--MGoAwBzpZvH-73" target="OpciTe9--MGoAwBzpZvH-78" edge="1">
          <mxGeometry relative="1" as="geometry">
            <mxPoint x="500" y="540" as="sourcePoint" />
            <mxPoint x="660" y="540" as="targetPoint" />
          </mxGeometry>
        </mxCell>
        <mxCell id="OpciTe9--MGoAwBzpZvH-106" value="" style="endArrow=none;html=1;rounded=0;strokeColor=#0B4D6A;exitX=1;exitY=0.25;exitDx=0;exitDy=0;labelBackgroundColor=none;fontColor=default;" parent="1" source="OpciTe9--MGoAwBzpZvH-73" target="OpciTe9--MGoAwBzpZvH-79" edge="1">
          <mxGeometry relative="1" as="geometry">
            <mxPoint x="500" y="540" as="sourcePoint" />
            <mxPoint x="660" y="540" as="targetPoint" />
          </mxGeometry>
        </mxCell>
        <mxCell id="OpciTe9--MGoAwBzpZvH-107" value="" style="endArrow=none;html=1;rounded=0;strokeColor=#0B4D6A;exitX=1;exitY=0.25;exitDx=0;exitDy=0;entryX=0;entryY=0.5;entryDx=0;entryDy=0;labelBackgroundColor=none;fontColor=default;" parent="1" source="OpciTe9--MGoAwBzpZvH-73" target="OpciTe9--MGoAwBzpZvH-80" edge="1">
          <mxGeometry relative="1" as="geometry">
            <mxPoint x="500" y="540" as="sourcePoint" />
            <mxPoint x="660" y="540" as="targetPoint" />
          </mxGeometry>
        </mxCell>
        <mxCell id="OpciTe9--MGoAwBzpZvH-109" value="" style="endArrow=none;html=1;rounded=0;strokeColor=#0B4D6A;exitX=1;exitY=0.25;exitDx=0;exitDy=0;entryX=0;entryY=0;entryDx=0;entryDy=0;labelBackgroundColor=none;fontColor=default;" parent="1" source="OpciTe9--MGoAwBzpZvH-73" target="OpciTe9--MGoAwBzpZvH-81" edge="1">
          <mxGeometry relative="1" as="geometry">
            <mxPoint x="614" y="576" as="sourcePoint" />
            <mxPoint x="660" y="610" as="targetPoint" />
          </mxGeometry>
        </mxCell>
        <mxCell id="OpciTe9--MGoAwBzpZvH-110" value="" style="endArrow=none;html=1;rounded=0;strokeColor=#0B4D6A;entryX=0;entryY=0;entryDx=0;entryDy=0;exitX=1;exitY=0.5;exitDx=0;exitDy=0;labelBackgroundColor=none;fontColor=default;" parent="1" source="OpciTe9--MGoAwBzpZvH-73" target="OpciTe9--MGoAwBzpZvH-82" edge="1">
          <mxGeometry relative="1" as="geometry">
            <mxPoint x="470" y="520" as="sourcePoint" />
            <mxPoint x="630" y="520" as="targetPoint" />
          </mxGeometry>
        </mxCell>
        <mxCell id="OpciTe9--MGoAwBzpZvH-111" value="" style="endArrow=none;html=1;rounded=0;strokeColor=#0B4D6A;exitX=1;exitY=0.5;exitDx=0;exitDy=0;entryX=0;entryY=0;entryDx=0;entryDy=0;labelBackgroundColor=none;fontColor=default;" parent="1" source="OpciTe9--MGoAwBzpZvH-73" target="OpciTe9--MGoAwBzpZvH-83" edge="1">
          <mxGeometry relative="1" as="geometry">
            <mxPoint x="500" y="540" as="sourcePoint" />
            <mxPoint x="660" y="540" as="targetPoint" />
          </mxGeometry>
        </mxCell>
        <mxCell id="OpciTe9--MGoAwBzpZvH-112" value="" style="endArrow=none;html=1;rounded=0;strokeColor=#0B4D6A;entryX=0;entryY=0;entryDx=0;entryDy=0;labelBackgroundColor=none;fontColor=default;" parent="1" target="OpciTe9--MGoAwBzpZvH-84" edge="1">
          <mxGeometry relative="1" as="geometry">
            <mxPoint x="610" y="580" as="sourcePoint" />
            <mxPoint x="660" y="660" as="targetPoint" />
          </mxGeometry>
        </mxCell>
        <mxCell id="OpciTe9--MGoAwBzpZvH-113" value="" style="endArrow=none;html=1;rounded=0;strokeColor=#0B4D6A;exitX=1;exitY=1;exitDx=0;exitDy=0;entryX=0;entryY=0;entryDx=0;entryDy=0;labelBackgroundColor=none;fontColor=default;" parent="1" source="OpciTe9--MGoAwBzpZvH-73" target="OpciTe9--MGoAwBzpZvH-85" edge="1">
          <mxGeometry relative="1" as="geometry">
            <mxPoint x="500" y="710" as="sourcePoint" />
            <mxPoint x="660" y="710" as="targetPoint" />
          </mxGeometry>
        </mxCell>
        <mxCell id="OpciTe9--MGoAwBzpZvH-115" value="Sid" style="ellipse;whiteSpace=wrap;html=1;align=center;labelBackgroundColor=none;fillColor=#09555B;strokeColor=#BAC8D3;fontColor=#EEEEEE;" parent="1" vertex="1">
          <mxGeometry x="500" y="410" width="100" height="40" as="geometry" />
        </mxCell>
        <mxCell id="OpciTe9--MGoAwBzpZvH-117" value="" style="endArrow=none;html=1;rounded=0;strokeColor=#0B4D6A;exitX=0.5;exitY=1;exitDx=0;exitDy=0;entryX=0.75;entryY=0;entryDx=0;entryDy=0;labelBackgroundColor=none;fontColor=default;" parent="1" source="OpciTe9--MGoAwBzpZvH-115" target="OpciTe9--MGoAwBzpZvH-73" edge="1">
          <mxGeometry relative="1" as="geometry">
            <mxPoint x="320" y="490" as="sourcePoint" />
            <mxPoint x="480" y="490" as="targetPoint" />
          </mxGeometry>
        </mxCell>
        <mxCell id="pcwXVXFbTbc38ed32GqV-1" value="Feedbacks" style="whiteSpace=wrap;html=1;align=center;labelBackgroundColor=none;fillColor=#09555B;strokeColor=#BAC8D3;fontColor=#EEEEEE;" vertex="1" parent="1">
          <mxGeometry x="220" y="750" width="100" height="40" as="geometry" />
        </mxCell>
        <mxCell id="pcwXVXFbTbc38ed32GqV-3" value="FeedbackId" style="ellipse;whiteSpace=wrap;html=1;align=center;labelBackgroundColor=none;fillColor=#09555B;strokeColor=#BAC8D3;fontColor=#EEEEEE;" vertex="1" parent="1">
          <mxGeometry x="220" y="670" width="100" height="40" as="geometry" />
        </mxCell>
        <mxCell id="pcwXVXFbTbc38ed32GqV-4" value="FullName" style="ellipse;whiteSpace=wrap;html=1;align=center;labelBackgroundColor=none;fillColor=#09555B;strokeColor=#BAC8D3;fontColor=#EEEEEE;" vertex="1" parent="1">
          <mxGeometry x="120" y="690" width="100" height="40" as="geometry" />
        </mxCell>
        <mxCell id="pcwXVXFbTbc38ed32GqV-5" value="Email Address" style="ellipse;whiteSpace=wrap;html=1;align=center;labelBackgroundColor=none;fillColor=#09555B;strokeColor=#BAC8D3;fontColor=#EEEEEE;" vertex="1" parent="1">
          <mxGeometry x="40" y="730" width="100" height="40" as="geometry" />
        </mxCell>
        <mxCell id="pcwXVXFbTbc38ed32GqV-6" value="Phone No." style="ellipse;whiteSpace=wrap;html=1;align=center;labelBackgroundColor=none;fillColor=#09555B;strokeColor=#BAC8D3;fontColor=#EEEEEE;" vertex="1" parent="1">
          <mxGeometry x="40" y="780" width="100" height="40" as="geometry" />
        </mxCell>
        <mxCell id="pcwXVXFbTbc38ed32GqV-7" value="Message" style="ellipse;whiteSpace=wrap;html=1;align=center;labelBackgroundColor=none;fillColor=#09555B;strokeColor=#BAC8D3;fontColor=#EEEEEE;" vertex="1" parent="1">
          <mxGeometry x="120" y="810" width="100" height="40" as="geometry" />
        </mxCell>
        <mxCell id="pcwXVXFbTbc38ed32GqV-8" value="Date &amp;amp; Time" style="ellipse;whiteSpace=wrap;html=1;align=center;labelBackgroundColor=none;fillColor=#09555B;strokeColor=#BAC8D3;fontColor=#EEEEEE;" vertex="1" parent="1">
          <mxGeometry x="220" y="830" width="100" height="40" as="geometry" />
        </mxCell>
        <mxCell id="pcwXVXFbTbc38ed32GqV-9" value="" style="endArrow=none;html=1;rounded=0;strokeColor=#0B4D6A;exitX=0.5;exitY=1;exitDx=0;exitDy=0;" edge="1" parent="1" source="pcwXVXFbTbc38ed32GqV-3" target="pcwXVXFbTbc38ed32GqV-1">
          <mxGeometry relative="1" as="geometry">
            <mxPoint x="390" y="750" as="sourcePoint" />
            <mxPoint x="550" y="750" as="targetPoint" />
          </mxGeometry>
        </mxCell>
        <mxCell id="pcwXVXFbTbc38ed32GqV-10" value="" style="endArrow=none;html=1;rounded=0;strokeColor=#0B4D6A;exitX=0.5;exitY=1;exitDx=0;exitDy=0;entryX=0.5;entryY=0;entryDx=0;entryDy=0;" edge="1" parent="1" source="pcwXVXFbTbc38ed32GqV-1" target="pcwXVXFbTbc38ed32GqV-8">
          <mxGeometry relative="1" as="geometry">
            <mxPoint x="266" y="796" as="sourcePoint" />
            <mxPoint x="266" y="836" as="targetPoint" />
          </mxGeometry>
        </mxCell>
        <mxCell id="pcwXVXFbTbc38ed32GqV-11" value="" style="endArrow=none;html=1;rounded=0;strokeColor=#0B4D6A;exitX=0.5;exitY=1;exitDx=0;exitDy=0;entryX=0.25;entryY=0;entryDx=0;entryDy=0;" edge="1" parent="1" source="pcwXVXFbTbc38ed32GqV-4" target="pcwXVXFbTbc38ed32GqV-1">
          <mxGeometry relative="1" as="geometry">
            <mxPoint x="390" y="750" as="sourcePoint" />
            <mxPoint x="550" y="750" as="targetPoint" />
          </mxGeometry>
        </mxCell>
        <mxCell id="pcwXVXFbTbc38ed32GqV-12" value="" style="endArrow=none;html=1;rounded=0;strokeColor=#0B4D6A;exitX=0.5;exitY=0;exitDx=0;exitDy=0;entryX=0.25;entryY=1;entryDx=0;entryDy=0;" edge="1" parent="1" source="pcwXVXFbTbc38ed32GqV-7" target="pcwXVXFbTbc38ed32GqV-1">
          <mxGeometry relative="1" as="geometry">
            <mxPoint x="180" y="740" as="sourcePoint" />
            <mxPoint x="255" y="760" as="targetPoint" />
          </mxGeometry>
        </mxCell>
        <mxCell id="pcwXVXFbTbc38ed32GqV-13" value="" style="endArrow=none;html=1;rounded=0;strokeColor=#0B4D6A;exitX=1;exitY=0.5;exitDx=0;exitDy=0;entryX=0;entryY=0.25;entryDx=0;entryDy=0;" edge="1" parent="1" source="pcwXVXFbTbc38ed32GqV-5" target="pcwXVXFbTbc38ed32GqV-1">
          <mxGeometry relative="1" as="geometry">
            <mxPoint x="180" y="740" as="sourcePoint" />
            <mxPoint x="255" y="760" as="targetPoint" />
          </mxGeometry>
        </mxCell>
        <mxCell id="pcwXVXFbTbc38ed32GqV-14" value="" style="endArrow=none;html=1;rounded=0;strokeColor=#0B4D6A;exitX=1;exitY=0;exitDx=0;exitDy=0;entryX=0;entryY=0.75;entryDx=0;entryDy=0;" edge="1" parent="1" source="pcwXVXFbTbc38ed32GqV-6" target="pcwXVXFbTbc38ed32GqV-1">
          <mxGeometry relative="1" as="geometry">
            <mxPoint x="150" y="760" as="sourcePoint" />
            <mxPoint x="230" y="770" as="targetPoint" />
          </mxGeometry>
        </mxCell>
        <mxCell id="pcwXVXFbTbc38ed32GqV-15" value="" style="edgeStyle=entityRelationEdgeStyle;fontSize=12;html=1;endArrow=ERoneToMany;rounded=0;strokeColor=#0B4D6A;exitX=0.5;exitY=1;exitDx=0;exitDy=0;entryX=1;entryY=0.75;entryDx=0;entryDy=0;" edge="1" parent="1" source="pcwXVXFbTbc38ed32GqV-21" target="pcwXVXFbTbc38ed32GqV-1">
          <mxGeometry width="100" height="100" relative="1" as="geometry">
            <mxPoint x="420" y="580" as="sourcePoint" />
            <mxPoint x="520" y="480" as="targetPoint" />
            <Array as="points">
              <mxPoint x="430" y="700" />
            </Array>
          </mxGeometry>
        </mxCell>
        <mxCell id="pcwXVXFbTbc38ed32GqV-18" value="" style="edgeStyle=entityRelationEdgeStyle;fontSize=12;html=1;endArrow=ERoneToMany;rounded=0;strokeColor=#0B4D6A;exitX=0.5;exitY=1;exitDx=0;exitDy=0;entryX=1;entryY=0.25;entryDx=0;entryDy=0;" edge="1" parent="1" source="OpciTe9--MGoAwBzpZvH-12" target="pcwXVXFbTbc38ed32GqV-1">
          <mxGeometry width="100" height="100" relative="1" as="geometry">
            <mxPoint x="390" y="430" as="sourcePoint" />
            <mxPoint x="400" y="520" as="targetPoint" />
          </mxGeometry>
        </mxCell>
        <mxCell id="pcwXVXFbTbc38ed32GqV-21" value="&lt;font style=&quot;font-size: 10px;&quot;&gt;Feedback&lt;/font&gt;" style="shape=rhombus;perimeter=rhombusPerimeter;whiteSpace=wrap;html=1;align=center;strokeColor=#BAC8D3;fontColor=#EEEEEE;fillColor=#09555B;" vertex="1" parent="1">
          <mxGeometry x="390" y="650" width="90" height="40" as="geometry" />
        </mxCell>
        <mxCell id="pcwXVXFbTbc38ed32GqV-23" value="" style="endArrow=none;html=1;rounded=0;strokeColor=#0B4D6A;entryX=0;entryY=0.75;entryDx=0;entryDy=0;exitX=0.5;exitY=0;exitDx=0;exitDy=0;" edge="1" parent="1" source="pcwXVXFbTbc38ed32GqV-21" target="OpciTe9--MGoAwBzpZvH-73">
          <mxGeometry relative="1" as="geometry">
            <mxPoint x="360" y="670" as="sourcePoint" />
            <mxPoint x="520" y="670" as="targetPoint" />
          </mxGeometry>
        </mxCell>
      </root>
    </mxGraphModel>
  </diagram>
  <diagram id="rbFAeX3vy3qEP1A7MWck" name="Page-2">
    <mxGraphModel dx="700" dy="379" grid="1" gridSize="10" guides="1" tooltips="1" connect="1" arrows="1" fold="1" page="1" pageScale="1" pageWidth="1169" pageHeight="827" math="0" shadow="0">
      <root>
        <mxCell id="0" />
        <mxCell id="1" parent="0" />
        <mxCell id="451fXwtAWSBPZBKwe_FF-111" value="Admin" style="whiteSpace=wrap;html=1;align=center;labelBackgroundColor=none;fillColor=#09555B;strokeColor=#BAC8D3;fontColor=#EEEEEE;" vertex="1" parent="1">
          <mxGeometry x="524" y="95" width="120" height="40" as="geometry" />
        </mxCell>
        <mxCell id="451fXwtAWSBPZBKwe_FF-112" value="Id" style="ellipse;whiteSpace=wrap;html=1;align=center;labelBackgroundColor=none;fillColor=#09555B;strokeColor=#BAC8D3;fontColor=#EEEEEE;" vertex="1" parent="1">
          <mxGeometry x="404" y="55" width="100" height="40" as="geometry" />
        </mxCell>
        <mxCell id="451fXwtAWSBPZBKwe_FF-113" value="Password" style="ellipse;whiteSpace=wrap;html=1;align=center;labelBackgroundColor=none;fillColor=#09555B;strokeColor=#BAC8D3;fontColor=#EEEEEE;" vertex="1" parent="1">
          <mxGeometry x="664" y="55" width="100" height="40" as="geometry" />
        </mxCell>
        <mxCell id="451fXwtAWSBPZBKwe_FF-114" value="Username" style="ellipse;whiteSpace=wrap;html=1;align=center;labelBackgroundColor=none;fillColor=#09555B;strokeColor=#BAC8D3;fontColor=#EEEEEE;" vertex="1" parent="1">
          <mxGeometry x="474" y="15" width="100" height="40" as="geometry" />
        </mxCell>
        <mxCell id="451fXwtAWSBPZBKwe_FF-115" value="Email" style="ellipse;whiteSpace=wrap;html=1;align=center;labelBackgroundColor=none;fillColor=#09555B;strokeColor=#BAC8D3;fontColor=#EEEEEE;" vertex="1" parent="1">
          <mxGeometry x="594" y="15" width="100" height="40" as="geometry" />
        </mxCell>
        <mxCell id="451fXwtAWSBPZBKwe_FF-116" value="" style="endArrow=none;html=1;rounded=0;exitX=0.5;exitY=1;exitDx=0;exitDy=0;entryX=0;entryY=0.5;entryDx=0;entryDy=0;labelBackgroundColor=none;strokeColor=#0B4D6A;fontColor=default;" edge="1" parent="1" source="451fXwtAWSBPZBKwe_FF-112" target="451fXwtAWSBPZBKwe_FF-111">
          <mxGeometry relative="1" as="geometry">
            <mxPoint x="624" y="205" as="sourcePoint" />
            <mxPoint x="784" y="205" as="targetPoint" />
          </mxGeometry>
        </mxCell>
        <mxCell id="451fXwtAWSBPZBKwe_FF-117" value="" style="endArrow=none;html=1;rounded=0;exitX=1;exitY=0.75;exitDx=0;exitDy=0;entryX=0.5;entryY=1;entryDx=0;entryDy=0;labelBackgroundColor=none;strokeColor=#0B4D6A;fontColor=default;" edge="1" parent="1" source="451fXwtAWSBPZBKwe_FF-111" target="451fXwtAWSBPZBKwe_FF-113">
          <mxGeometry relative="1" as="geometry">
            <mxPoint x="624" y="205" as="sourcePoint" />
            <mxPoint x="784" y="205" as="targetPoint" />
          </mxGeometry>
        </mxCell>
        <mxCell id="451fXwtAWSBPZBKwe_FF-118" value="" style="endArrow=none;html=1;rounded=0;exitX=0.5;exitY=1;exitDx=0;exitDy=0;entryX=0.25;entryY=0;entryDx=0;entryDy=0;labelBackgroundColor=none;strokeColor=#0B4D6A;fontColor=default;" edge="1" parent="1" source="451fXwtAWSBPZBKwe_FF-114" target="451fXwtAWSBPZBKwe_FF-111">
          <mxGeometry relative="1" as="geometry">
            <mxPoint x="604" y="155" as="sourcePoint" />
            <mxPoint x="764" y="155" as="targetPoint" />
          </mxGeometry>
        </mxCell>
        <mxCell id="451fXwtAWSBPZBKwe_FF-119" value="" style="endArrow=none;html=1;rounded=0;exitX=0.5;exitY=1;exitDx=0;exitDy=0;entryX=0.75;entryY=0;entryDx=0;entryDy=0;labelBackgroundColor=none;strokeColor=#0B4D6A;fontColor=default;" edge="1" parent="1" source="451fXwtAWSBPZBKwe_FF-115" target="451fXwtAWSBPZBKwe_FF-111">
          <mxGeometry relative="1" as="geometry">
            <mxPoint x="534" y="65" as="sourcePoint" />
            <mxPoint x="564" y="105" as="targetPoint" />
          </mxGeometry>
        </mxCell>
        <mxCell id="451fXwtAWSBPZBKwe_FF-120" value="Manage" style="shape=rhombus;perimeter=rhombusPerimeter;whiteSpace=wrap;html=1;align=center;labelBackgroundColor=none;fillColor=#09555B;strokeColor=#BAC8D3;fontColor=#EEEEEE;" vertex="1" parent="1">
          <mxGeometry x="524" y="170" width="120" height="60" as="geometry" />
        </mxCell>
        <mxCell id="451fXwtAWSBPZBKwe_FF-121" value="" style="endArrow=none;html=1;rounded=0;exitX=0.5;exitY=1;exitDx=0;exitDy=0;entryX=0.5;entryY=0;entryDx=0;entryDy=0;entryPerimeter=0;labelBackgroundColor=none;strokeColor=#0B4D6A;fontColor=default;" edge="1" parent="1" source="451fXwtAWSBPZBKwe_FF-111" target="451fXwtAWSBPZBKwe_FF-120">
          <mxGeometry relative="1" as="geometry">
            <mxPoint x="510" y="280" as="sourcePoint" />
            <mxPoint x="600" y="260" as="targetPoint" />
          </mxGeometry>
        </mxCell>
        <mxCell id="451fXwtAWSBPZBKwe_FF-122" value="Classes" style="whiteSpace=wrap;html=1;align=center;labelBackgroundColor=none;fillColor=#09555B;strokeColor=#BAC8D3;fontColor=#EEEEEE;" vertex="1" parent="1">
          <mxGeometry x="790" y="135" width="100" height="40" as="geometry" />
        </mxCell>
        <mxCell id="451fXwtAWSBPZBKwe_FF-123" value="ClassId" style="ellipse;whiteSpace=wrap;html=1;align=center;labelBackgroundColor=none;fillColor=#09555B;strokeColor=#BAC8D3;fontColor=#EEEEEE;" vertex="1" parent="1">
          <mxGeometry x="820" y="65" width="100" height="40" as="geometry" />
        </mxCell>
        <mxCell id="451fXwtAWSBPZBKwe_FF-124" value="Class" style="ellipse;whiteSpace=wrap;html=1;align=center;labelBackgroundColor=none;fillColor=#09555B;strokeColor=#BAC8D3;fontColor=#EEEEEE;" vertex="1" parent="1">
          <mxGeometry x="910" y="95" width="100" height="40" as="geometry" />
        </mxCell>
        <mxCell id="451fXwtAWSBPZBKwe_FF-125" value="DeptId" style="ellipse;whiteSpace=wrap;html=1;align=center;labelBackgroundColor=none;fillColor=#09555B;strokeColor=#BAC8D3;fontColor=#EEEEEE;" vertex="1" parent="1">
          <mxGeometry x="970" y="135" width="100" height="40" as="geometry" />
        </mxCell>
        <mxCell id="451fXwtAWSBPZBKwe_FF-126" value="FacultyId" style="ellipse;whiteSpace=wrap;html=1;align=center;labelBackgroundColor=none;fillColor=#09555B;strokeColor=#BAC8D3;fontColor=#EEEEEE;" vertex="1" parent="1">
          <mxGeometry x="910" y="175" width="100" height="40" as="geometry" />
        </mxCell>
        <mxCell id="451fXwtAWSBPZBKwe_FF-127" value="Fees" style="ellipse;whiteSpace=wrap;html=1;align=center;labelBackgroundColor=none;fillColor=#09555B;strokeColor=#BAC8D3;fontColor=#EEEEEE;" vertex="1" parent="1">
          <mxGeometry x="820" y="215" width="100" height="40" as="geometry" />
        </mxCell>
        <mxCell id="451fXwtAWSBPZBKwe_FF-128" value="" style="endArrow=none;html=1;rounded=0;exitX=0.5;exitY=0;exitDx=0;exitDy=0;entryX=0.5;entryY=1;entryDx=0;entryDy=0;labelBackgroundColor=none;strokeColor=#0B4D6A;fontColor=default;" edge="1" parent="1" source="451fXwtAWSBPZBKwe_FF-122" target="451fXwtAWSBPZBKwe_FF-123">
          <mxGeometry relative="1" as="geometry">
            <mxPoint x="710" y="175" as="sourcePoint" />
            <mxPoint x="870" y="175" as="targetPoint" />
          </mxGeometry>
        </mxCell>
        <mxCell id="451fXwtAWSBPZBKwe_FF-129" value="" style="endArrow=none;html=1;rounded=0;entryX=0;entryY=1;entryDx=0;entryDy=0;exitX=1;exitY=0;exitDx=0;exitDy=0;labelBackgroundColor=none;strokeColor=#0B4D6A;fontColor=default;" edge="1" parent="1" source="451fXwtAWSBPZBKwe_FF-122" target="451fXwtAWSBPZBKwe_FF-124">
          <mxGeometry relative="1" as="geometry">
            <mxPoint x="710" y="175" as="sourcePoint" />
            <mxPoint x="870" y="175" as="targetPoint" />
          </mxGeometry>
        </mxCell>
        <mxCell id="451fXwtAWSBPZBKwe_FF-130" value="" style="endArrow=none;html=1;rounded=0;entryX=0;entryY=0.5;entryDx=0;entryDy=0;exitX=1;exitY=0.5;exitDx=0;exitDy=0;labelBackgroundColor=none;strokeColor=#0B4D6A;fontColor=default;" edge="1" parent="1" source="451fXwtAWSBPZBKwe_FF-122" target="451fXwtAWSBPZBKwe_FF-125">
          <mxGeometry relative="1" as="geometry">
            <mxPoint x="710" y="175" as="sourcePoint" />
            <mxPoint x="870" y="175" as="targetPoint" />
          </mxGeometry>
        </mxCell>
        <mxCell id="451fXwtAWSBPZBKwe_FF-131" value="" style="endArrow=none;html=1;rounded=0;entryX=0;entryY=0;entryDx=0;entryDy=0;exitX=1;exitY=1;exitDx=0;exitDy=0;labelBackgroundColor=none;strokeColor=#0B4D6A;fontColor=default;" edge="1" parent="1" source="451fXwtAWSBPZBKwe_FF-122" target="451fXwtAWSBPZBKwe_FF-126">
          <mxGeometry relative="1" as="geometry">
            <mxPoint x="900" y="145" as="sourcePoint" />
            <mxPoint x="935" y="139" as="targetPoint" />
          </mxGeometry>
        </mxCell>
        <mxCell id="451fXwtAWSBPZBKwe_FF-132" value="" style="endArrow=none;html=1;rounded=0;entryX=0.5;entryY=0;entryDx=0;entryDy=0;exitX=0.5;exitY=1;exitDx=0;exitDy=0;labelBackgroundColor=none;strokeColor=#0B4D6A;fontColor=default;" edge="1" parent="1" source="451fXwtAWSBPZBKwe_FF-122" target="451fXwtAWSBPZBKwe_FF-127">
          <mxGeometry relative="1" as="geometry">
            <mxPoint x="710" y="175" as="sourcePoint" />
            <mxPoint x="870" y="175" as="targetPoint" />
          </mxGeometry>
        </mxCell>
        <mxCell id="451fXwtAWSBPZBKwe_FF-133" value="" style="edgeStyle=entityRelationEdgeStyle;fontSize=12;html=1;endArrow=ERoneToMany;rounded=0;exitX=1;exitY=0.5;exitDx=0;exitDy=0;entryX=0;entryY=0.5;entryDx=0;entryDy=0;labelBackgroundColor=none;strokeColor=#0B4D6A;fontColor=default;" edge="1" parent="1" source="451fXwtAWSBPZBKwe_FF-120" target="451fXwtAWSBPZBKwe_FF-122">
          <mxGeometry width="100" height="100" relative="1" as="geometry">
            <mxPoint x="570" y="370" as="sourcePoint" />
            <mxPoint x="670" y="270" as="targetPoint" />
            <Array as="points">
              <mxPoint x="600" y="230" />
            </Array>
          </mxGeometry>
        </mxCell>
        <mxCell id="451fXwtAWSBPZBKwe_FF-134" value="Departments" style="whiteSpace=wrap;html=1;align=center;labelBackgroundColor=none;fillColor=#09555B;strokeColor=#BAC8D3;fontColor=#EEEEEE;" vertex="1" parent="1">
          <mxGeometry x="280" y="115" width="100" height="40" as="geometry" />
        </mxCell>
        <mxCell id="451fXwtAWSBPZBKwe_FF-136" value="DeptId" style="ellipse;whiteSpace=wrap;html=1;align=center;labelBackgroundColor=none;fillColor=#09555B;strokeColor=#BAC8D3;fontColor=#EEEEEE;" vertex="1" parent="1">
          <mxGeometry x="250" y="55" width="100" height="40" as="geometry" />
        </mxCell>
        <mxCell id="451fXwtAWSBPZBKwe_FF-137" value="DeptName" style="ellipse;whiteSpace=wrap;html=1;align=center;labelBackgroundColor=none;fillColor=#09555B;strokeColor=#BAC8D3;fontColor=#EEEEEE;" vertex="1" parent="1">
          <mxGeometry x="170" y="95" width="100" height="40" as="geometry" />
        </mxCell>
        <mxCell id="451fXwtAWSBPZBKwe_FF-138" value="Medium" style="ellipse;whiteSpace=wrap;html=1;align=center;labelBackgroundColor=none;fillColor=#09555B;strokeColor=#BAC8D3;fontColor=#EEEEEE;" vertex="1" parent="1">
          <mxGeometry x="170" y="145" width="100" height="40" as="geometry" />
        </mxCell>
        <mxCell id="451fXwtAWSBPZBKwe_FF-139" value="HeadOfDept" style="ellipse;whiteSpace=wrap;html=1;align=center;labelBackgroundColor=none;fillColor=#09555B;strokeColor=#BAC8D3;fontColor=#EEEEEE;" vertex="1" parent="1">
          <mxGeometry x="260" y="185" width="100" height="40" as="geometry" />
        </mxCell>
        <mxCell id="451fXwtAWSBPZBKwe_FF-140" value="" style="endArrow=none;html=1;rounded=0;strokeColor=#0B4D6A;exitX=0.5;exitY=1;exitDx=0;exitDy=0;entryX=0.5;entryY=0;entryDx=0;entryDy=0;labelBackgroundColor=none;fontColor=default;" edge="1" parent="1" source="451fXwtAWSBPZBKwe_FF-136" target="451fXwtAWSBPZBKwe_FF-134">
          <mxGeometry relative="1" as="geometry">
            <mxPoint x="400" y="55" as="sourcePoint" />
            <mxPoint x="560" y="55" as="targetPoint" />
          </mxGeometry>
        </mxCell>
        <mxCell id="451fXwtAWSBPZBKwe_FF-141" value="" style="endArrow=none;html=1;rounded=0;strokeColor=#0B4D6A;exitX=0.5;exitY=0;exitDx=0;exitDy=0;entryX=0.5;entryY=1;entryDx=0;entryDy=0;labelBackgroundColor=none;fontColor=default;" edge="1" parent="1" source="451fXwtAWSBPZBKwe_FF-139" target="451fXwtAWSBPZBKwe_FF-134">
          <mxGeometry relative="1" as="geometry">
            <mxPoint x="400" y="175" as="sourcePoint" />
            <mxPoint x="420" y="145" as="targetPoint" />
          </mxGeometry>
        </mxCell>
        <mxCell id="451fXwtAWSBPZBKwe_FF-142" value="" style="endArrow=none;html=1;rounded=0;strokeColor=#0B4D6A;exitX=1;exitY=1;exitDx=0;exitDy=0;labelBackgroundColor=none;fontColor=default;" edge="1" parent="1" source="451fXwtAWSBPZBKwe_FF-137" target="451fXwtAWSBPZBKwe_FF-134">
          <mxGeometry relative="1" as="geometry">
            <mxPoint x="380" y="95" as="sourcePoint" />
            <mxPoint x="540" y="95" as="targetPoint" />
          </mxGeometry>
        </mxCell>
        <mxCell id="451fXwtAWSBPZBKwe_FF-143" value="" style="endArrow=none;html=1;rounded=0;strokeColor=#0B4D6A;exitX=1;exitY=0;exitDx=0;exitDy=0;entryX=0;entryY=0.75;entryDx=0;entryDy=0;labelBackgroundColor=none;fontColor=default;" edge="1" parent="1" source="451fXwtAWSBPZBKwe_FF-138" target="451fXwtAWSBPZBKwe_FF-134">
          <mxGeometry relative="1" as="geometry">
            <mxPoint x="380" y="95" as="sourcePoint" />
            <mxPoint x="540" y="95" as="targetPoint" />
          </mxGeometry>
        </mxCell>
        <mxCell id="451fXwtAWSBPZBKwe_FF-144" value="Faculty" style="whiteSpace=wrap;html=1;align=center;labelBackgroundColor=none;fillColor=#09555B;strokeColor=#BAC8D3;fontColor=#EEEEEE;" vertex="1" parent="1">
          <mxGeometry x="240" y="370" width="100" height="40" as="geometry" />
        </mxCell>
        <mxCell id="451fXwtAWSBPZBKwe_FF-145" value="" style="edgeStyle=entityRelationEdgeStyle;fontSize=12;html=1;endArrow=ERoneToMany;rounded=0;strokeColor=#0B4D6A;entryX=1;entryY=0.5;entryDx=0;entryDy=0;exitX=0;exitY=1;exitDx=0;exitDy=0;labelBackgroundColor=none;fontColor=default;" edge="1" parent="1" source="451fXwtAWSBPZBKwe_FF-120" target="451fXwtAWSBPZBKwe_FF-144">
          <mxGeometry width="100" height="100" relative="1" as="geometry">
            <mxPoint x="220" y="360" as="sourcePoint" />
            <mxPoint x="470" y="410" as="targetPoint" />
            <Array as="points">
              <mxPoint x="390" y="380" />
              <mxPoint x="400" y="390" />
            </Array>
          </mxGeometry>
        </mxCell>
        <mxCell id="451fXwtAWSBPZBKwe_FF-146" value="Fname" style="ellipse;whiteSpace=wrap;html=1;align=center;labelBackgroundColor=none;fillColor=#09555B;strokeColor=#BAC8D3;fontColor=#EEEEEE;" vertex="1" parent="1">
          <mxGeometry x="150" y="240" width="100" height="40" as="geometry" />
        </mxCell>
        <mxCell id="451fXwtAWSBPZBKwe_FF-147" value="Lname" style="ellipse;whiteSpace=wrap;html=1;align=center;labelBackgroundColor=none;fillColor=#09555B;strokeColor=#BAC8D3;fontColor=#EEEEEE;" vertex="1" parent="1">
          <mxGeometry x="40" y="240" width="100" height="40" as="geometry" />
        </mxCell>
        <mxCell id="451fXwtAWSBPZBKwe_FF-148" value="Gender" style="ellipse;whiteSpace=wrap;html=1;align=center;labelBackgroundColor=none;fillColor=#09555B;strokeColor=#BAC8D3;fontColor=#EEEEEE;" vertex="1" parent="1">
          <mxGeometry x="40" y="300" width="100" height="40" as="geometry" />
        </mxCell>
        <mxCell id="451fXwtAWSBPZBKwe_FF-149" value="Qualification" style="ellipse;whiteSpace=wrap;html=1;align=center;labelBackgroundColor=none;fillColor=#09555B;strokeColor=#BAC8D3;fontColor=#EEEEEE;" vertex="1" parent="1">
          <mxGeometry x="40" y="370" width="100" height="40" as="geometry" />
        </mxCell>
        <mxCell id="451fXwtAWSBPZBKwe_FF-150" value="FacultyId" style="ellipse;whiteSpace=wrap;html=1;align=center;labelBackgroundColor=none;fillColor=#09555B;strokeColor=#BAC8D3;fontColor=#EEEEEE;" vertex="1" parent="1">
          <mxGeometry x="260" y="240" width="100" height="40" as="geometry" />
        </mxCell>
        <mxCell id="451fXwtAWSBPZBKwe_FF-151" value="ClassId" style="ellipse;whiteSpace=wrap;html=1;align=center;labelBackgroundColor=none;fillColor=#09555B;strokeColor=#BAC8D3;fontColor=#EEEEEE;" vertex="1" parent="1">
          <mxGeometry x="40" y="440" width="100" height="40" as="geometry" />
        </mxCell>
        <mxCell id="451fXwtAWSBPZBKwe_FF-152" value="" style="endArrow=none;html=1;rounded=0;strokeColor=#0B4D6A;exitX=0.5;exitY=0;exitDx=0;exitDy=0;entryX=0;entryY=0.75;entryDx=0;entryDy=0;labelBackgroundColor=none;fontColor=default;" edge="1" parent="1" source="451fXwtAWSBPZBKwe_FF-151" target="451fXwtAWSBPZBKwe_FF-144">
          <mxGeometry relative="1" as="geometry">
            <mxPoint x="450" y="460" as="sourcePoint" />
            <mxPoint x="610" y="460" as="targetPoint" />
          </mxGeometry>
        </mxCell>
        <mxCell id="451fXwtAWSBPZBKwe_FF-153" value="" style="endArrow=none;html=1;rounded=0;strokeColor=#0B4D6A;exitX=1;exitY=0.5;exitDx=0;exitDy=0;labelBackgroundColor=none;fontColor=default;" edge="1" parent="1" source="451fXwtAWSBPZBKwe_FF-149" target="451fXwtAWSBPZBKwe_FF-144">
          <mxGeometry relative="1" as="geometry">
            <mxPoint x="300" y="430" as="sourcePoint" />
            <mxPoint x="460" y="430" as="targetPoint" />
          </mxGeometry>
        </mxCell>
        <mxCell id="451fXwtAWSBPZBKwe_FF-154" value="" style="endArrow=none;html=1;rounded=0;strokeColor=#0B4D6A;exitX=0.5;exitY=1;exitDx=0;exitDy=0;entryX=0;entryY=0.25;entryDx=0;entryDy=0;labelBackgroundColor=none;fontColor=default;" edge="1" parent="1" source="451fXwtAWSBPZBKwe_FF-148" target="451fXwtAWSBPZBKwe_FF-144">
          <mxGeometry relative="1" as="geometry">
            <mxPoint x="150" y="450" as="sourcePoint" />
            <mxPoint x="250" y="410" as="targetPoint" />
          </mxGeometry>
        </mxCell>
        <mxCell id="451fXwtAWSBPZBKwe_FF-155" value="" style="endArrow=none;html=1;rounded=0;strokeColor=#0B4D6A;exitX=0.5;exitY=1;exitDx=0;exitDy=0;entryX=0.25;entryY=0;entryDx=0;entryDy=0;labelBackgroundColor=none;fontColor=default;" edge="1" parent="1" source="451fXwtAWSBPZBKwe_FF-147" target="451fXwtAWSBPZBKwe_FF-144">
          <mxGeometry relative="1" as="geometry">
            <mxPoint x="150" y="360" as="sourcePoint" />
            <mxPoint x="250" y="390" as="targetPoint" />
          </mxGeometry>
        </mxCell>
        <mxCell id="451fXwtAWSBPZBKwe_FF-156" value="Experience" style="ellipse;whiteSpace=wrap;html=1;align=center;labelBackgroundColor=none;fillColor=#09555B;strokeColor=#BAC8D3;fontColor=#EEEEEE;" vertex="1" parent="1">
          <mxGeometry x="40" y="500" width="100" height="40" as="geometry" />
        </mxCell>
        <mxCell id="451fXwtAWSBPZBKwe_FF-157" value="" style="endArrow=none;html=1;rounded=0;strokeColor=#0B4D6A;exitX=0.5;exitY=0;exitDx=0;exitDy=0;entryX=0.25;entryY=1;entryDx=0;entryDy=0;labelBackgroundColor=none;fontColor=default;" edge="1" parent="1" source="451fXwtAWSBPZBKwe_FF-156" target="451fXwtAWSBPZBKwe_FF-144">
          <mxGeometry relative="1" as="geometry">
            <mxPoint x="150" y="550" as="sourcePoint" />
            <mxPoint x="240" y="560" as="targetPoint" />
          </mxGeometry>
        </mxCell>
        <mxCell id="451fXwtAWSBPZBKwe_FF-158" value="Profile" style="ellipse;whiteSpace=wrap;html=1;align=center;labelBackgroundColor=none;fillColor=#09555B;strokeColor=#BAC8D3;fontColor=#EEEEEE;" vertex="1" parent="1">
          <mxGeometry x="150" y="500" width="100" height="40" as="geometry" />
        </mxCell>
        <mxCell id="451fXwtAWSBPZBKwe_FF-159" value="Status" style="ellipse;whiteSpace=wrap;html=1;align=center;labelBackgroundColor=none;fillColor=#09555B;strokeColor=#BAC8D3;fontColor=#EEEEEE;" vertex="1" parent="1">
          <mxGeometry x="260" y="500" width="100" height="40" as="geometry" />
        </mxCell>
        <mxCell id="451fXwtAWSBPZBKwe_FF-160" value="" style="endArrow=none;html=1;rounded=0;strokeColor=#0B4D6A;exitX=0.5;exitY=1;exitDx=0;exitDy=0;entryX=0.5;entryY=0;entryDx=0;entryDy=0;labelBackgroundColor=none;fontColor=default;" edge="1" parent="1" source="451fXwtAWSBPZBKwe_FF-146" target="451fXwtAWSBPZBKwe_FF-144">
          <mxGeometry relative="1" as="geometry">
            <mxPoint x="150" y="330" as="sourcePoint" />
            <mxPoint x="250" y="380" as="targetPoint" />
          </mxGeometry>
        </mxCell>
        <mxCell id="451fXwtAWSBPZBKwe_FF-161" value="" style="endArrow=none;html=1;rounded=0;strokeColor=#0B4D6A;exitX=0.5;exitY=0;exitDx=0;exitDy=0;entryX=0.5;entryY=1;entryDx=0;entryDy=0;labelBackgroundColor=none;fontColor=default;" edge="1" parent="1" source="451fXwtAWSBPZBKwe_FF-158" target="451fXwtAWSBPZBKwe_FF-144">
          <mxGeometry relative="1" as="geometry">
            <mxPoint x="240" y="300" as="sourcePoint" />
            <mxPoint x="260" y="410" as="targetPoint" />
          </mxGeometry>
        </mxCell>
        <mxCell id="451fXwtAWSBPZBKwe_FF-162" value="" style="endArrow=none;html=1;rounded=0;strokeColor=#0B4D6A;exitX=0.5;exitY=1;exitDx=0;exitDy=0;entryX=0.75;entryY=0;entryDx=0;entryDy=0;labelBackgroundColor=none;fontColor=default;" edge="1" parent="1" source="451fXwtAWSBPZBKwe_FF-150" target="451fXwtAWSBPZBKwe_FF-144">
          <mxGeometry relative="1" as="geometry">
            <mxPoint x="290" y="430" as="sourcePoint" />
            <mxPoint x="450" y="430" as="targetPoint" />
          </mxGeometry>
        </mxCell>
        <mxCell id="451fXwtAWSBPZBKwe_FF-163" value="" style="endArrow=none;html=1;rounded=0;strokeColor=#0B4D6A;exitX=0.5;exitY=0;exitDx=0;exitDy=0;entryX=0.75;entryY=1;entryDx=0;entryDy=0;labelBackgroundColor=none;fontColor=default;" edge="1" parent="1" source="451fXwtAWSBPZBKwe_FF-159" target="451fXwtAWSBPZBKwe_FF-144">
          <mxGeometry relative="1" as="geometry">
            <mxPoint x="320" y="340" as="sourcePoint" />
            <mxPoint x="307" y="380" as="targetPoint" />
          </mxGeometry>
        </mxCell>
        <mxCell id="451fXwtAWSBPZBKwe_FF-164" value="Students" style="whiteSpace=wrap;html=1;align=center;strokeColor=#BAC8D3;fontColor=#EEEEEE;fillColor=#09555B;labelBackgroundColor=none;" vertex="1" parent="1">
          <mxGeometry x="840" y="460" width="100" height="40" as="geometry" />
        </mxCell>
        <mxCell id="451fXwtAWSBPZBKwe_FF-165" value="" style="edgeStyle=entityRelationEdgeStyle;fontSize=12;html=1;endArrow=ERoneToMany;rounded=0;strokeColor=#0B4D6A;exitX=1;exitY=1;exitDx=0;exitDy=0;entryX=0;entryY=0.25;entryDx=0;entryDy=0;labelBackgroundColor=none;fontColor=default;" edge="1" parent="1" source="451fXwtAWSBPZBKwe_FF-120" target="451fXwtAWSBPZBKwe_FF-164">
          <mxGeometry width="100" height="100" relative="1" as="geometry">
            <mxPoint x="400" y="460" as="sourcePoint" />
            <mxPoint x="500" y="360" as="targetPoint" />
          </mxGeometry>
        </mxCell>
        <mxCell id="451fXwtAWSBPZBKwe_FF-166" value="Sid" style="ellipse;whiteSpace=wrap;html=1;align=center;labelBackgroundColor=none;fillColor=#09555B;strokeColor=#BAC8D3;fontColor=#EEEEEE;" vertex="1" parent="1">
          <mxGeometry x="890" y="270" width="100" height="40" as="geometry" />
        </mxCell>
        <mxCell id="451fXwtAWSBPZBKwe_FF-167" value="Full Name" style="ellipse;whiteSpace=wrap;html=1;align=center;labelBackgroundColor=none;fillColor=#09555B;strokeColor=#BAC8D3;fontColor=#EEEEEE;" vertex="1" parent="1">
          <mxGeometry x="950" y="230" width="100" height="40" as="geometry" />
        </mxCell>
        <mxCell id="451fXwtAWSBPZBKwe_FF-168" value="Gender" style="ellipse;whiteSpace=wrap;html=1;align=center;labelBackgroundColor=none;fillColor=#09555B;strokeColor=#BAC8D3;fontColor=#EEEEEE;" vertex="1" parent="1">
          <mxGeometry x="1060" y="270" width="100" height="40" as="geometry" />
        </mxCell>
        <mxCell id="451fXwtAWSBPZBKwe_FF-169" value="Blood" style="ellipse;whiteSpace=wrap;html=1;align=center;labelBackgroundColor=none;fillColor=#09555B;strokeColor=#BAC8D3;fontColor=#EEEEEE;" vertex="1" parent="1">
          <mxGeometry x="1060" y="320" width="100" height="40" as="geometry" />
        </mxCell>
        <mxCell id="451fXwtAWSBPZBKwe_FF-170" value="Address" style="ellipse;whiteSpace=wrap;html=1;align=center;labelBackgroundColor=none;fillColor=#09555B;strokeColor=#BAC8D3;fontColor=#EEEEEE;" vertex="1" parent="1">
          <mxGeometry x="1060" y="370" width="100" height="40" as="geometry" />
        </mxCell>
        <mxCell id="451fXwtAWSBPZBKwe_FF-171" value="Phone" style="ellipse;whiteSpace=wrap;html=1;align=center;labelBackgroundColor=none;fillColor=#09555B;strokeColor=#BAC8D3;fontColor=#EEEEEE;" vertex="1" parent="1">
          <mxGeometry x="1060" y="420" width="100" height="40" as="geometry" />
        </mxCell>
        <mxCell id="451fXwtAWSBPZBKwe_FF-172" value="Email Adress" style="ellipse;whiteSpace=wrap;html=1;align=center;labelBackgroundColor=none;fillColor=#09555B;strokeColor=#BAC8D3;fontColor=#EEEEEE;" vertex="1" parent="1">
          <mxGeometry x="1060" y="470" width="100" height="40" as="geometry" />
        </mxCell>
        <mxCell id="451fXwtAWSBPZBKwe_FF-173" value="Tenth School" style="ellipse;whiteSpace=wrap;html=1;align=center;labelBackgroundColor=none;fillColor=#09555B;strokeColor=#BAC8D3;fontColor=#EEEEEE;" vertex="1" parent="1">
          <mxGeometry x="1060" y="520" width="100" height="40" as="geometry" />
        </mxCell>
        <mxCell id="451fXwtAWSBPZBKwe_FF-174" value="Tenth Percent" style="ellipse;whiteSpace=wrap;html=1;align=center;labelBackgroundColor=none;fillColor=#09555B;strokeColor=#BAC8D3;fontColor=#EEEEEE;" vertex="1" parent="1">
          <mxGeometry x="1060" y="570" width="100" height="40" as="geometry" />
        </mxCell>
        <mxCell id="451fXwtAWSBPZBKwe_FF-175" value="&lt;font style=&quot;font-size: 11px;&quot;&gt;Tenth Passing year&lt;/font&gt;" style="ellipse;whiteSpace=wrap;html=1;align=center;labelBackgroundColor=none;fillColor=#09555B;strokeColor=#BAC8D3;fontColor=#EEEEEE;" vertex="1" parent="1">
          <mxGeometry x="1060" y="620" width="100" height="40" as="geometry" />
        </mxCell>
        <mxCell id="451fXwtAWSBPZBKwe_FF-176" value="TwelfthSchool&amp;nbsp;" style="ellipse;whiteSpace=wrap;html=1;align=center;labelBackgroundColor=none;fillColor=#09555B;strokeColor=#BAC8D3;fontColor=#EEEEEE;" vertex="1" parent="1">
          <mxGeometry x="1060" y="670" width="100" height="40" as="geometry" />
        </mxCell>
        <mxCell id="451fXwtAWSBPZBKwe_FF-177" value="&lt;font style=&quot;font-size: 10px;&quot;&gt;TwelfthPercentage&amp;nbsp;&lt;/font&gt;" style="ellipse;whiteSpace=wrap;html=1;align=center;labelBackgroundColor=none;fillColor=#09555B;strokeColor=#BAC8D3;fontColor=#EEEEEE;" vertex="1" parent="1">
          <mxGeometry x="1060" y="720" width="100" height="50" as="geometry" />
        </mxCell>
        <mxCell id="451fXwtAWSBPZBKwe_FF-178" value="DOB" style="ellipse;whiteSpace=wrap;html=1;align=center;labelBackgroundColor=none;fillColor=#09555B;strokeColor=#BAC8D3;fontColor=#EEEEEE;" vertex="1" parent="1">
          <mxGeometry x="1060" y="220" width="100" height="40" as="geometry" />
        </mxCell>
        <mxCell id="451fXwtAWSBPZBKwe_FF-179" value="Password" style="ellipse;whiteSpace=wrap;html=1;align=center;labelBackgroundColor=none;fillColor=#09555B;strokeColor=#BAC8D3;fontColor=#EEEEEE;" vertex="1" parent="1">
          <mxGeometry x="780" y="650" width="100" height="40" as="geometry" />
        </mxCell>
        <mxCell id="451fXwtAWSBPZBKwe_FF-180" value="Profile" style="ellipse;whiteSpace=wrap;html=1;align=center;labelBackgroundColor=none;fillColor=#09555B;strokeColor=#BAC8D3;fontColor=#EEEEEE;" vertex="1" parent="1">
          <mxGeometry x="830" y="690" width="100" height="40" as="geometry" />
        </mxCell>
        <mxCell id="451fXwtAWSBPZBKwe_FF-181" value="ClassId" style="ellipse;whiteSpace=wrap;html=1;align=center;labelBackgroundColor=none;fillColor=#09555B;strokeColor=#BAC8D3;fontColor=#EEEEEE;" vertex="1" parent="1">
          <mxGeometry x="890" y="730" width="100" height="40" as="geometry" />
        </mxCell>
        <mxCell id="451fXwtAWSBPZBKwe_FF-182" value="DeptId" style="ellipse;whiteSpace=wrap;html=1;align=center;labelBackgroundColor=none;fillColor=#09555B;strokeColor=#BAC8D3;fontColor=#EEEEEE;" vertex="1" parent="1">
          <mxGeometry x="950" y="770" width="100" height="40" as="geometry" />
        </mxCell>
        <mxCell id="451fXwtAWSBPZBKwe_FF-183" value="&lt;font style=&quot;font-size: 10px;&quot;&gt;TwelfthPassingYear&amp;nbsp;&lt;/font&gt;" style="ellipse;whiteSpace=wrap;html=1;align=center;labelBackgroundColor=none;fillColor=#09555B;strokeColor=#BAC8D3;fontColor=#EEEEEE;" vertex="1" parent="1">
          <mxGeometry x="1060" y="780" width="100" height="40" as="geometry" />
        </mxCell>
        <mxCell id="451fXwtAWSBPZBKwe_FF-184" value="" style="endArrow=none;html=1;rounded=0;strokeColor=#0B4D6A;exitX=0.5;exitY=0;exitDx=0;exitDy=0;entryX=0.5;entryY=1;entryDx=0;entryDy=0;labelBackgroundColor=none;fontColor=default;" edge="1" parent="1" source="451fXwtAWSBPZBKwe_FF-179" target="451fXwtAWSBPZBKwe_FF-164">
          <mxGeometry relative="1" as="geometry">
            <mxPoint x="780" y="520" as="sourcePoint" />
            <mxPoint x="950" y="500" as="targetPoint" />
          </mxGeometry>
        </mxCell>
        <mxCell id="451fXwtAWSBPZBKwe_FF-185" value="" style="endArrow=none;html=1;rounded=0;strokeColor=#0B4D6A;exitX=0.5;exitY=0;exitDx=0;exitDy=0;entryX=0.75;entryY=1;entryDx=0;entryDy=0;labelBackgroundColor=none;fontColor=default;" edge="1" parent="1" source="451fXwtAWSBPZBKwe_FF-180" target="451fXwtAWSBPZBKwe_FF-164">
          <mxGeometry relative="1" as="geometry">
            <mxPoint x="770" y="540" as="sourcePoint" />
            <mxPoint x="850" y="510" as="targetPoint" />
          </mxGeometry>
        </mxCell>
        <mxCell id="451fXwtAWSBPZBKwe_FF-186" value="" style="endArrow=none;html=1;rounded=0;strokeColor=#0B4D6A;exitX=0.5;exitY=0;exitDx=0;exitDy=0;entryX=0.75;entryY=1;entryDx=0;entryDy=0;labelBackgroundColor=none;fontColor=default;" edge="1" parent="1" source="451fXwtAWSBPZBKwe_FF-181" target="451fXwtAWSBPZBKwe_FF-164">
          <mxGeometry relative="1" as="geometry">
            <mxPoint x="810" y="590" as="sourcePoint" />
            <mxPoint x="875" y="510" as="targetPoint" />
          </mxGeometry>
        </mxCell>
        <mxCell id="451fXwtAWSBPZBKwe_FF-187" value="" style="endArrow=none;html=1;rounded=0;strokeColor=#0B4D6A;exitX=0.5;exitY=0;exitDx=0;exitDy=0;entryX=0.75;entryY=1;entryDx=0;entryDy=0;labelBackgroundColor=none;fontColor=default;" edge="1" parent="1" source="451fXwtAWSBPZBKwe_FF-182" target="451fXwtAWSBPZBKwe_FF-164">
          <mxGeometry relative="1" as="geometry">
            <mxPoint x="880" y="630" as="sourcePoint" />
            <mxPoint x="875" y="510" as="targetPoint" />
          </mxGeometry>
        </mxCell>
        <mxCell id="451fXwtAWSBPZBKwe_FF-188" value="" style="endArrow=none;html=1;rounded=0;strokeColor=#0B4D6A;exitX=0;exitY=0.5;exitDx=0;exitDy=0;entryX=1;entryY=1;entryDx=0;entryDy=0;labelBackgroundColor=none;fontColor=default;" edge="1" parent="1" source="451fXwtAWSBPZBKwe_FF-183" target="451fXwtAWSBPZBKwe_FF-164">
          <mxGeometry relative="1" as="geometry">
            <mxPoint x="950" y="670" as="sourcePoint" />
            <mxPoint x="900" y="510" as="targetPoint" />
          </mxGeometry>
        </mxCell>
        <mxCell id="451fXwtAWSBPZBKwe_FF-189" value="" style="endArrow=none;html=1;rounded=0;strokeColor=#0B4D6A;exitX=0;exitY=0;exitDx=0;exitDy=0;entryX=1;entryY=1;entryDx=0;entryDy=0;labelBackgroundColor=none;fontColor=default;" edge="1" parent="1" source="451fXwtAWSBPZBKwe_FF-177" target="451fXwtAWSBPZBKwe_FF-164">
          <mxGeometry relative="1" as="geometry">
            <mxPoint x="1020" y="710" as="sourcePoint" />
            <mxPoint x="925" y="510" as="targetPoint" />
          </mxGeometry>
        </mxCell>
        <mxCell id="451fXwtAWSBPZBKwe_FF-190" value="" style="endArrow=none;html=1;rounded=0;strokeColor=#0B4D6A;exitX=0.5;exitY=1;exitDx=0;exitDy=0;entryX=0.75;entryY=0;entryDx=0;entryDy=0;labelBackgroundColor=none;fontColor=default;" edge="1" parent="1" source="451fXwtAWSBPZBKwe_FF-166" target="451fXwtAWSBPZBKwe_FF-164">
          <mxGeometry relative="1" as="geometry">
            <mxPoint x="770" y="540" as="sourcePoint" />
            <mxPoint x="850" y="500" as="targetPoint" />
          </mxGeometry>
        </mxCell>
        <mxCell id="451fXwtAWSBPZBKwe_FF-191" value="" style="endArrow=none;html=1;rounded=0;strokeColor=#0B4D6A;exitX=0.5;exitY=1;exitDx=0;exitDy=0;entryX=0.75;entryY=0;entryDx=0;entryDy=0;labelBackgroundColor=none;fontColor=default;" edge="1" parent="1" source="451fXwtAWSBPZBKwe_FF-167" target="451fXwtAWSBPZBKwe_FF-164">
          <mxGeometry relative="1" as="geometry">
            <mxPoint x="880" y="440" as="sourcePoint" />
            <mxPoint x="850" y="470" as="targetPoint" />
          </mxGeometry>
        </mxCell>
        <mxCell id="451fXwtAWSBPZBKwe_FF-192" value="" style="endArrow=none;html=1;rounded=0;strokeColor=#0B4D6A;exitX=1;exitY=0;exitDx=0;exitDy=0;entryX=0;entryY=0.5;entryDx=0;entryDy=0;labelBackgroundColor=none;fontColor=default;" edge="1" parent="1" source="451fXwtAWSBPZBKwe_FF-164" target="451fXwtAWSBPZBKwe_FF-178">
          <mxGeometry relative="1" as="geometry">
            <mxPoint x="830" y="390" as="sourcePoint" />
            <mxPoint x="1010" y="310" as="targetPoint" />
          </mxGeometry>
        </mxCell>
        <mxCell id="451fXwtAWSBPZBKwe_FF-193" value="" style="endArrow=none;html=1;rounded=0;strokeColor=#0B4D6A;entryX=0;entryY=1;entryDx=0;entryDy=0;labelBackgroundColor=none;fontColor=default;" edge="1" parent="1" target="451fXwtAWSBPZBKwe_FF-168">
          <mxGeometry relative="1" as="geometry">
            <mxPoint x="940" y="460" as="sourcePoint" />
            <mxPoint x="990" y="510" as="targetPoint" />
          </mxGeometry>
        </mxCell>
        <mxCell id="451fXwtAWSBPZBKwe_FF-194" value="" style="endArrow=none;html=1;rounded=0;strokeColor=#0B4D6A;entryX=0;entryY=1;entryDx=0;entryDy=0;exitX=1;exitY=0;exitDx=0;exitDy=0;labelBackgroundColor=none;fontColor=default;" edge="1" parent="1" source="451fXwtAWSBPZBKwe_FF-164" target="451fXwtAWSBPZBKwe_FF-169">
          <mxGeometry relative="1" as="geometry">
            <mxPoint x="830" y="440" as="sourcePoint" />
            <mxPoint x="990" y="440" as="targetPoint" />
          </mxGeometry>
        </mxCell>
        <mxCell id="451fXwtAWSBPZBKwe_FF-195" value="" style="endArrow=none;html=1;rounded=0;strokeColor=#0B4D6A;exitX=1;exitY=0.25;exitDx=0;exitDy=0;labelBackgroundColor=none;fontColor=default;" edge="1" parent="1" source="451fXwtAWSBPZBKwe_FF-164" target="451fXwtAWSBPZBKwe_FF-170">
          <mxGeometry relative="1" as="geometry">
            <mxPoint x="830" y="440" as="sourcePoint" />
            <mxPoint x="990" y="440" as="targetPoint" />
          </mxGeometry>
        </mxCell>
        <mxCell id="451fXwtAWSBPZBKwe_FF-196" value="" style="endArrow=none;html=1;rounded=0;strokeColor=#0B4D6A;exitX=1;exitY=0.25;exitDx=0;exitDy=0;entryX=0;entryY=0.5;entryDx=0;entryDy=0;labelBackgroundColor=none;fontColor=default;" edge="1" parent="1" source="451fXwtAWSBPZBKwe_FF-164" target="451fXwtAWSBPZBKwe_FF-171">
          <mxGeometry relative="1" as="geometry">
            <mxPoint x="830" y="440" as="sourcePoint" />
            <mxPoint x="990" y="440" as="targetPoint" />
          </mxGeometry>
        </mxCell>
        <mxCell id="451fXwtAWSBPZBKwe_FF-197" value="" style="endArrow=none;html=1;rounded=0;strokeColor=#0B4D6A;exitX=1;exitY=0.25;exitDx=0;exitDy=0;entryX=0;entryY=0;entryDx=0;entryDy=0;labelBackgroundColor=none;fontColor=default;" edge="1" parent="1" source="451fXwtAWSBPZBKwe_FF-164" target="451fXwtAWSBPZBKwe_FF-172">
          <mxGeometry relative="1" as="geometry">
            <mxPoint x="944" y="476" as="sourcePoint" />
            <mxPoint x="990" y="510" as="targetPoint" />
          </mxGeometry>
        </mxCell>
        <mxCell id="451fXwtAWSBPZBKwe_FF-198" value="" style="endArrow=none;html=1;rounded=0;strokeColor=#0B4D6A;entryX=0;entryY=0;entryDx=0;entryDy=0;exitX=1;exitY=0.5;exitDx=0;exitDy=0;labelBackgroundColor=none;fontColor=default;" edge="1" parent="1" source="451fXwtAWSBPZBKwe_FF-164" target="451fXwtAWSBPZBKwe_FF-173">
          <mxGeometry relative="1" as="geometry">
            <mxPoint x="800" y="420" as="sourcePoint" />
            <mxPoint x="960" y="420" as="targetPoint" />
          </mxGeometry>
        </mxCell>
        <mxCell id="451fXwtAWSBPZBKwe_FF-199" value="" style="endArrow=none;html=1;rounded=0;strokeColor=#0B4D6A;exitX=1;exitY=0.5;exitDx=0;exitDy=0;entryX=0;entryY=0;entryDx=0;entryDy=0;labelBackgroundColor=none;fontColor=default;" edge="1" parent="1" source="451fXwtAWSBPZBKwe_FF-164" target="451fXwtAWSBPZBKwe_FF-174">
          <mxGeometry relative="1" as="geometry">
            <mxPoint x="830" y="440" as="sourcePoint" />
            <mxPoint x="990" y="440" as="targetPoint" />
          </mxGeometry>
        </mxCell>
        <mxCell id="451fXwtAWSBPZBKwe_FF-200" value="" style="endArrow=none;html=1;rounded=0;strokeColor=#0B4D6A;entryX=0;entryY=0;entryDx=0;entryDy=0;labelBackgroundColor=none;fontColor=default;" edge="1" parent="1" target="451fXwtAWSBPZBKwe_FF-175">
          <mxGeometry relative="1" as="geometry">
            <mxPoint x="940" y="480" as="sourcePoint" />
            <mxPoint x="990" y="560" as="targetPoint" />
          </mxGeometry>
        </mxCell>
        <mxCell id="451fXwtAWSBPZBKwe_FF-201" value="" style="endArrow=none;html=1;rounded=0;strokeColor=#0B4D6A;exitX=1;exitY=1;exitDx=0;exitDy=0;entryX=0;entryY=0;entryDx=0;entryDy=0;labelBackgroundColor=none;fontColor=default;" edge="1" parent="1" source="451fXwtAWSBPZBKwe_FF-164" target="451fXwtAWSBPZBKwe_FF-176">
          <mxGeometry relative="1" as="geometry">
            <mxPoint x="830" y="610" as="sourcePoint" />
            <mxPoint x="990" y="610" as="targetPoint" />
          </mxGeometry>
        </mxCell>
        <mxCell id="451fXwtAWSBPZBKwe_FF-202" value="Sid" style="ellipse;whiteSpace=wrap;html=1;align=center;labelBackgroundColor=none;fillColor=#09555B;strokeColor=#BAC8D3;fontColor=#EEEEEE;" vertex="1" parent="1">
          <mxGeometry x="830" y="310" width="100" height="40" as="geometry" />
        </mxCell>
        <mxCell id="451fXwtAWSBPZBKwe_FF-203" value="" style="endArrow=none;html=1;rounded=0;strokeColor=#0B4D6A;exitX=0.5;exitY=1;exitDx=0;exitDy=0;entryX=0.75;entryY=0;entryDx=0;entryDy=0;labelBackgroundColor=none;fontColor=default;" edge="1" parent="1" source="451fXwtAWSBPZBKwe_FF-202" target="451fXwtAWSBPZBKwe_FF-164">
          <mxGeometry relative="1" as="geometry">
            <mxPoint x="650" y="390" as="sourcePoint" />
            <mxPoint x="810" y="390" as="targetPoint" />
          </mxGeometry>
        </mxCell>
        <mxCell id="451fXwtAWSBPZBKwe_FF-204" value="Feedbacks" style="whiteSpace=wrap;html=1;align=center;labelBackgroundColor=none;fillColor=#09555B;strokeColor=#BAC8D3;fontColor=#EEEEEE;" vertex="1" parent="1">
          <mxGeometry x="250" y="640" width="100" height="40" as="geometry" />
        </mxCell>
        <mxCell id="451fXwtAWSBPZBKwe_FF-205" value="FeedbackId" style="ellipse;whiteSpace=wrap;html=1;align=center;labelBackgroundColor=none;fillColor=#09555B;strokeColor=#BAC8D3;fontColor=#EEEEEE;" vertex="1" parent="1">
          <mxGeometry x="250" y="560" width="100" height="40" as="geometry" />
        </mxCell>
        <mxCell id="451fXwtAWSBPZBKwe_FF-206" value="FullName" style="ellipse;whiteSpace=wrap;html=1;align=center;labelBackgroundColor=none;fillColor=#09555B;strokeColor=#BAC8D3;fontColor=#EEEEEE;" vertex="1" parent="1">
          <mxGeometry x="150" y="580" width="100" height="40" as="geometry" />
        </mxCell>
        <mxCell id="451fXwtAWSBPZBKwe_FF-207" value="Email Address" style="ellipse;whiteSpace=wrap;html=1;align=center;labelBackgroundColor=none;fillColor=#09555B;strokeColor=#BAC8D3;fontColor=#EEEEEE;" vertex="1" parent="1">
          <mxGeometry x="70" y="620" width="100" height="40" as="geometry" />
        </mxCell>
        <mxCell id="451fXwtAWSBPZBKwe_FF-208" value="Phone No." style="ellipse;whiteSpace=wrap;html=1;align=center;labelBackgroundColor=none;fillColor=#09555B;strokeColor=#BAC8D3;fontColor=#EEEEEE;" vertex="1" parent="1">
          <mxGeometry x="70" y="670" width="100" height="40" as="geometry" />
        </mxCell>
        <mxCell id="451fXwtAWSBPZBKwe_FF-209" value="Message" style="ellipse;whiteSpace=wrap;html=1;align=center;labelBackgroundColor=none;fillColor=#09555B;strokeColor=#BAC8D3;fontColor=#EEEEEE;" vertex="1" parent="1">
          <mxGeometry x="150" y="700" width="100" height="40" as="geometry" />
        </mxCell>
        <mxCell id="451fXwtAWSBPZBKwe_FF-210" value="Date &amp;amp; Time" style="ellipse;whiteSpace=wrap;html=1;align=center;labelBackgroundColor=none;fillColor=#09555B;strokeColor=#BAC8D3;fontColor=#EEEEEE;" vertex="1" parent="1">
          <mxGeometry x="250" y="720" width="100" height="40" as="geometry" />
        </mxCell>
        <mxCell id="451fXwtAWSBPZBKwe_FF-211" value="" style="endArrow=none;html=1;rounded=0;strokeColor=#0B4D6A;exitX=0.5;exitY=1;exitDx=0;exitDy=0;" edge="1" parent="1" source="451fXwtAWSBPZBKwe_FF-205" target="451fXwtAWSBPZBKwe_FF-204">
          <mxGeometry relative="1" as="geometry">
            <mxPoint x="420" y="640" as="sourcePoint" />
            <mxPoint x="580" y="640" as="targetPoint" />
          </mxGeometry>
        </mxCell>
        <mxCell id="451fXwtAWSBPZBKwe_FF-212" value="" style="endArrow=none;html=1;rounded=0;strokeColor=#0B4D6A;exitX=0.5;exitY=1;exitDx=0;exitDy=0;entryX=0.5;entryY=0;entryDx=0;entryDy=0;" edge="1" parent="1" source="451fXwtAWSBPZBKwe_FF-204" target="451fXwtAWSBPZBKwe_FF-210">
          <mxGeometry relative="1" as="geometry">
            <mxPoint x="296" y="686" as="sourcePoint" />
            <mxPoint x="296" y="726" as="targetPoint" />
          </mxGeometry>
        </mxCell>
        <mxCell id="451fXwtAWSBPZBKwe_FF-213" value="" style="endArrow=none;html=1;rounded=0;strokeColor=#0B4D6A;exitX=0.5;exitY=1;exitDx=0;exitDy=0;entryX=0.25;entryY=0;entryDx=0;entryDy=0;" edge="1" parent="1" source="451fXwtAWSBPZBKwe_FF-206" target="451fXwtAWSBPZBKwe_FF-204">
          <mxGeometry relative="1" as="geometry">
            <mxPoint x="420" y="640" as="sourcePoint" />
            <mxPoint x="580" y="640" as="targetPoint" />
          </mxGeometry>
        </mxCell>
        <mxCell id="451fXwtAWSBPZBKwe_FF-214" value="" style="endArrow=none;html=1;rounded=0;strokeColor=#0B4D6A;exitX=0.5;exitY=0;exitDx=0;exitDy=0;entryX=0.25;entryY=1;entryDx=0;entryDy=0;" edge="1" parent="1" source="451fXwtAWSBPZBKwe_FF-209" target="451fXwtAWSBPZBKwe_FF-204">
          <mxGeometry relative="1" as="geometry">
            <mxPoint x="210" y="630" as="sourcePoint" />
            <mxPoint x="285" y="650" as="targetPoint" />
          </mxGeometry>
        </mxCell>
        <mxCell id="451fXwtAWSBPZBKwe_FF-215" value="" style="endArrow=none;html=1;rounded=0;strokeColor=#0B4D6A;exitX=1;exitY=0.5;exitDx=0;exitDy=0;entryX=0;entryY=0.25;entryDx=0;entryDy=0;" edge="1" parent="1" source="451fXwtAWSBPZBKwe_FF-207" target="451fXwtAWSBPZBKwe_FF-204">
          <mxGeometry relative="1" as="geometry">
            <mxPoint x="210" y="630" as="sourcePoint" />
            <mxPoint x="285" y="650" as="targetPoint" />
          </mxGeometry>
        </mxCell>
        <mxCell id="451fXwtAWSBPZBKwe_FF-216" value="" style="endArrow=none;html=1;rounded=0;strokeColor=#0B4D6A;exitX=1;exitY=0;exitDx=0;exitDy=0;entryX=0;entryY=0.75;entryDx=0;entryDy=0;" edge="1" parent="1" source="451fXwtAWSBPZBKwe_FF-208" target="451fXwtAWSBPZBKwe_FF-204">
          <mxGeometry relative="1" as="geometry">
            <mxPoint x="180" y="650" as="sourcePoint" />
            <mxPoint x="260" y="660" as="targetPoint" />
          </mxGeometry>
        </mxCell>
        <mxCell id="451fXwtAWSBPZBKwe_FF-217" value="" style="edgeStyle=entityRelationEdgeStyle;fontSize=12;html=1;endArrow=ERoneToMany;rounded=0;strokeColor=#0B4D6A;exitX=0;exitY=0.5;exitDx=0;exitDy=0;entryX=1;entryY=0.75;entryDx=0;entryDy=0;" edge="1" parent="1" source="451fXwtAWSBPZBKwe_FF-219" target="451fXwtAWSBPZBKwe_FF-204">
          <mxGeometry width="100" height="100" relative="1" as="geometry">
            <mxPoint x="430" y="590" as="sourcePoint" />
            <mxPoint x="530" y="490" as="targetPoint" />
            <Array as="points">
              <mxPoint x="440" y="710" />
            </Array>
          </mxGeometry>
        </mxCell>
        <mxCell id="451fXwtAWSBPZBKwe_FF-218" value="" style="edgeStyle=entityRelationEdgeStyle;fontSize=12;html=1;endArrow=ERoneToMany;rounded=0;strokeColor=#0B4D6A;exitX=0.5;exitY=1;exitDx=0;exitDy=0;entryX=1;entryY=0.25;entryDx=0;entryDy=0;" edge="1" parent="1" source="451fXwtAWSBPZBKwe_FF-120" target="451fXwtAWSBPZBKwe_FF-204">
          <mxGeometry width="100" height="100" relative="1" as="geometry">
            <mxPoint x="400" y="440" as="sourcePoint" />
            <mxPoint x="410" y="530" as="targetPoint" />
          </mxGeometry>
        </mxCell>
        <mxCell id="451fXwtAWSBPZBKwe_FF-219" value="&lt;font style=&quot;font-size: 10px;&quot;&gt;Feedback&lt;/font&gt;" style="shape=rhombus;perimeter=rhombusPerimeter;whiteSpace=wrap;html=1;align=center;strokeColor=#BAC8D3;fontColor=#EEEEEE;fillColor=#09555B;" vertex="1" parent="1">
          <mxGeometry x="574" y="520" width="90" height="40" as="geometry" />
        </mxCell>
        <mxCell id="451fXwtAWSBPZBKwe_FF-220" value="" style="endArrow=none;html=1;rounded=0;strokeColor=#0B4D6A;entryX=0;entryY=0.75;entryDx=0;entryDy=0;exitX=1;exitY=0.5;exitDx=0;exitDy=0;" edge="1" parent="1" source="451fXwtAWSBPZBKwe_FF-219" target="451fXwtAWSBPZBKwe_FF-164">
          <mxGeometry relative="1" as="geometry">
            <mxPoint x="370" y="680" as="sourcePoint" />
            <mxPoint x="530" y="680" as="targetPoint" />
            <Array as="points">
              <mxPoint x="770" y="540" />
              <mxPoint x="770" y="490" />
            </Array>
          </mxGeometry>
        </mxCell>
        <mxCell id="451fXwtAWSBPZBKwe_FF-221" value="" style="edgeStyle=entityRelationEdgeStyle;fontSize=12;html=1;endArrow=ERoneToMany;rounded=0;strokeColor=#0B4D6A;entryX=1;entryY=0.5;entryDx=0;entryDy=0;exitX=0;exitY=0.5;exitDx=0;exitDy=0;" edge="1" parent="1" source="451fXwtAWSBPZBKwe_FF-120" target="451fXwtAWSBPZBKwe_FF-134">
          <mxGeometry width="100" height="100" relative="1" as="geometry">
            <mxPoint x="390" y="270" as="sourcePoint" />
            <mxPoint x="630" y="260" as="targetPoint" />
          </mxGeometry>
        </mxCell>
      </root>
    </mxGraphModel>
  </diagram>
</mxfile>
